<svg width="406" height="274" viewBox="0 0 406 274" fill="none" xmlns="http://www.w3.org/2000/svg">
    <path d="M302.479 242.639C335.706 244.982 377.245 231.807 395.568 202.917C403.156 190.955 408.195 175.601 402.913 162.368C398.913 152.346 381.989 141.016 378.337 130.851C374.633 120.544 375.158 108.934 377.059 98.0983C382.524 66.9571 352.141 18.3445 287.981 13.1572C239.331 9.22397 217.325 47.0388 175.92 52.2C134.137 57.4082 85.1434 26.1577 55.2562 52.2C18.139 84.5425 35.5572 116.917 40.0747 132.064C45.8779 151.522 17.5122 173.732 23.3619 202.379C36.4417 266.435 131.505 223.238 159.368 220.533C187.665 217.787 215.747 225.841 243.478 232.306C271.208 238.772 300.579 243.636 327.685 234.761L302.479 242.639Z"
          fill="#F3FAFF"/>
    <path d="M200.531 273.256C310.869 273.256 400.315 268.993 400.315 263.736C400.315 258.478 310.869 254.216 200.531 254.216C90.1927 254.216 0.746094 258.478 0.746094 263.736C0.746094 268.993 90.1927 273.256 200.531 273.256Z"
          fill="#E9ECF2"/>
    <path d="M26.6293 100.657L26.0258 100.725C24.6788 88.8537 28.3134 77.3198 37.4651 64.4258L37.9603 64.7772C28.9004 77.5419 25.2999 88.9432 26.6293 100.657Z"
          fill="#2E4882"/>
    <path d="M22.8062 108.605L22.2265 108.787C15.2803 86.659 27.1962 68.7382 39.7688 54.1261L40.2295 54.5222C27.7657 69.0079 15.949 86.761 22.8062 108.605Z"
          fill="#2E4882"/>
    <path d="M315.937 14.3671C301.999 7.2418 290.199 5.32363 278.799 8.3264L278.645 7.73933C290.197 4.69463 302.135 6.62866 316.213 13.8259L315.937 14.3671Z"
          fill="#2E4882"/>
    <path d="M326.41 15.1332C310.28 4.88786 291.009 -4.24737 270.381 5.688L270.117 5.1406C291.013 -4.92227 310.464 4.2855 326.736 14.6209L326.41 15.1332Z"
          fill="#2E4882"/>
    <path d="M149.309 75.8305L148.426 75.8062C148.438 75.3568 148.46 74.9091 148.491 74.4637L149.372 74.5255C149.343 74.9584 149.321 75.3942 149.309 75.8305Z"
          fill="#3F5A9F"/>
    <path d="M209.55 68.4384C209.311 67.5799 209.031 66.722 208.718 65.8878L209.546 65.5773C209.868 66.4352 210.155 67.3181 210.401 68.2015L209.55 68.4384ZM149.677 71.8588L148.805 71.72C148.949 70.8156 149.136 69.9055 149.359 69.0153L150.216 69.2306C149.998 70.0953 149.817 70.9799 149.677 71.8588ZM207.666 63.42C207.281 62.617 206.855 61.8214 206.401 61.0553L207.161 60.6048C207.629 61.3936 208.067 62.2119 208.463 63.0381L207.666 63.42ZM150.984 66.6585L150.149 66.3689C150.449 65.5036 150.792 64.6406 151.168 63.8031L151.974 64.1646C151.609 64.9789 151.275 65.8176 150.984 66.6585ZM204.934 58.8107C204.415 58.0888 203.856 57.3793 203.274 56.7027L203.944 56.1264C204.543 56.8223 205.118 57.5522 205.652 58.2956L204.934 58.8107ZM153.178 61.7659L152.407 61.3352C152.854 60.5345 153.341 59.7435 153.856 58.9858L154.587 59.4817C154.087 60.2189 153.612 60.9879 153.178 61.7659ZM201.437 54.7466C200.799 54.1238 200.125 53.5226 199.436 52.9582L199.996 52.2748C200.705 52.8551 201.397 53.4739 202.053 54.1142L201.437 54.7466ZM156.188 57.3283L155.502 56.7707C156.081 56.0601 156.697 55.366 157.335 54.7075L157.97 55.3223C157.349 55.9627 156.75 56.6376 156.188 57.3283ZM197.288 51.3506C196.551 50.8474 195.785 50.3714 195.008 49.935L195.441 49.1649C196.24 49.6137 197.029 50.1033 197.787 50.6207L197.288 51.3506ZM159.919 53.4795L159.341 52.8114C160.035 52.2102 160.762 51.6339 161.504 51.0978L162.022 51.8135C161.302 52.3349 160.594 52.8953 159.919 53.4795ZM192.613 48.7235C191.801 48.3563 190.963 48.0203 190.123 47.7256L190.415 46.892C191.28 47.1952 192.142 47.5409 192.977 47.9188L192.613 48.7235ZM164.262 50.3385L163.809 49.5797C164.597 49.1094 165.414 48.6691 166.239 48.2707L166.624 49.0663C165.822 49.4534 165.027 49.8818 164.262 50.3385ZM187.554 46.9498C186.69 46.73 185.806 46.5458 184.927 46.403L185.069 45.5309C185.973 45.6782 186.882 45.8675 187.772 46.0936L187.554 46.9498ZM169.087 48.0055L168.775 47.1793C169.632 46.8546 170.514 46.5639 171.397 46.3157L171.636 47.1663C170.778 47.4077 169.92 47.6905 169.087 48.0055ZM182.263 46.0885C181.374 46.0239 180.472 45.9973 179.581 46.0103L179.568 45.1269C180.484 45.1138 181.412 45.1405 182.327 45.2073L182.263 46.0885ZM174.247 46.5526L174.083 45.6845C174.984 45.5139 175.906 45.3802 176.814 45.2872L176.903 46.1661C176.02 46.2562 175.124 46.3866 174.247 46.5526Z"
          fill="#3F5A9F"/>
    <path d="M211.246 72.2515L210.372 72.3761C210.31 71.9426 210.239 71.5131 210.16 71.0864L211.029 70.9255C211.11 71.3641 211.183 71.8061 211.246 72.2515Z"
          fill="#3F5A9F"/>
    <path d="M152.01 76.1139L148.802 77.6456L145.473 76.4001L149.081 84.0059L152.01 76.1139Z" fill="#3F5A9F"/>
    <path d="M121.889 119.829C121.757 117.817 122.578 115.452 123.115 115.687C123.652 115.921 123.151 117.802 123.526 118.367C124.019 119.111 124.443 119.807 124.078 121.561L121.889 119.829Z"
          fill="#FCB47E"/>
    <path d="M103.757 260.251L102.152 247.287H111.656L112.074 260.251H103.757Z" fill="#FCB47E"/>
    <path d="M111.892 254.648C108.301 255.587 102.967 253.878 102.967 253.878L102.59 250.801L111.793 251.575L111.892 254.648Z"
          fill="#FCA377"/>
    <path d="M58.4297 260.251L59.3069 247.287H68.811L66.7461 260.251H58.4297Z" fill="#FCB47E"/>
    <path d="M68.3682 250.057L67.7183 254.147C63.3306 254.405 60.2134 252.782 58.9922 252.003L59.2602 248.022L68.3682 250.057Z"
          fill="#FCA377"/>
    <path d="M123.971 252.123C123.971 252.123 117.624 172.412 100.484 133.66L84.5508 134.459C84.5508 134.459 85.9108 190.583 97.8646 252.123C97.8646 252.123 112.818 255.672 123.971 252.123Z"
          fill="#3F5A9F"/>
    <path d="M78.8243 252.123C78.8243 252.123 63.1441 254.658 54.1992 248.575C54.1992 248.575 58.9621 162.146 73.5481 133.808H90.6977C90.6977 133.808 90.1372 180.395 78.8243 252.123Z"
          fill="#3F5A9F"/>
    <path d="M73.927 92.7779C74.3492 91.2688 75.1431 89.3433 75.1431 89.3433C74.8654 90.7877 74.8603 92.3857 74.8898 93.2499C78.6122 94.9573 86.3903 97.1809 98.4665 94.2274C98.3124 92.9864 98.2432 91.81 98.2432 91.81C98.4569 92.5994 98.7646 93.3933 99.0621 94.0784C99.4939 93.969 99.9257 93.8551 100.368 93.731C100.006 92.197 99.8514 89.532 99.8514 89.532C100.274 91.1351 101.107 92.7682 101.46 93.4182C102.194 93.1949 102.944 92.9564 103.708 92.6985C103.708 92.6985 101.301 89.0254 99.7222 79.4657C98.4217 71.6083 94.3916 67.8961 88.2665 68.0599C75.6689 68.3976 72.3086 91.7754 72.3086 91.7754C72.3086 91.7754 72.8452 92.2021 73.927 92.7779Z"
          fill="#374263"/>
    <path d="M117.477 120.503C117.477 120.503 112.429 97.7776 92.3563 96.6023C61.4605 94.7935 51.9648 114.89 51.9648 114.89L117.477 120.503Z"
          fill="white"/>
    <path d="M85.4898 73.8223C88.9005 71.8735 94.8885 71.7897 96.2581 76.4046C97.5218 80.6631 97.3201 93.5072 91.6194 93.2635C85.6603 93.0091 83.7801 88.4791 83.2486 85.711C83.0576 84.7165 82.079 75.7711 85.4898 73.8223Z"
          fill="#FCB47E"/>
    <path d="M83.3955 85.4843C83.3955 85.4843 80.7327 86.3037 80.2358 83.9101C79.7875 81.7505 82.3511 80.909 83.1768 81.8548L83.3955 85.4843Z"
          fill="#FCB47E"/>
    <path d="M120.274 147.877C124.093 140.398 127.076 122.929 127.076 122.929C127.52 122.242 129.374 119.268 129.49 117.003C129.54 115.996 129.031 115.397 128.349 115.727C128.104 114.909 127.619 114.76 126.963 115.239C126.597 114.523 126.149 114.551 125.703 114.901C124.727 113.266 122.782 118.446 122.792 119.094C122.799 119.528 122.931 121.123 122.996 121.592C123.084 122.213 111.543 141.882 111.543 141.882L120.274 147.877Z"
          fill="#FCB47E"/>
    <path d="M57.3131 249.974L56.8008 249.94C56.8574 249.076 62.6635 163.19 77.407 135.284L77.861 135.524C63.1679 163.334 57.3697 249.11 57.3131 249.974Z"
          fill="white"/>
    <path d="M69.8173 119.967L64.4102 150.889C78.5202 155.128 94.4435 151.32 107.465 142.68L102.072 112.184L92.0368 96.9032C92.0368 96.9032 87.1437 102.487 81.7507 96.7762L67.7048 102.667L69.8173 119.967Z"
          fill="white"/>
    <path d="M121.185 126.671L118.336 119.606C118.336 119.606 111.205 105.111 105.338 101.363L101.582 126.726L121.185 126.671Z"
          fill="white"/>
    <path d="M87.8642 182.643L87.3633 182.596C88.1747 173.935 88.8496 165.464 89.3698 157.421L89.8719 157.453C89.3517 165.502 88.6762 173.977 87.8642 182.643Z"
          fill="#47393D"/>
    <path d="M101.671 252.302C101.565 251.792 90.9889 201.051 87.9805 175.483L88.4905 175.423C91.4955 200.969 102.067 251.688 102.173 252.198L101.671 252.302Z"
          fill="white"/>
    <path d="M102.321 112.15L101.832 112.236L107.214 142.734L107.703 142.648L102.321 112.15Z" fill="#3F5A9F"/>
    <path d="M81.2188 81.3771C81.2188 81.3771 82.1719 80.8263 83.1199 81.8339C83.1199 81.8339 83.3721 79.8194 84.0521 78.5483L84.4799 80.7963C85.1695 80.9057 87.3671 81.2655 89.776 81.3125C90.4543 81.3256 92.3634 81.3125 92.3634 81.3125L92.7986 77.555L93.6123 81.2377C94.1733 81.193 94.6091 81.1335 95.0556 81.074L95.3741 78.8651L95.9895 80.9448C96.5901 80.8456 97.0072 80.751 97.2106 80.7068C97.3347 79.1286 97.3846 74.8695 94.57 72.4028C91.3389 69.5735 84.5043 71.1273 82.9204 74.5171C81.3377 77.9074 81.2188 81.3771 81.2188 81.3771Z"
          fill="#374263"/>
    <path d="M87.6017 99.3739C90.4316 99.3739 92.1124 96.9026 92.1124 96.9026L91.4035 88.7183L83.6203 84.0926L81.6562 96.7757C81.6562 96.7757 84.0923 99.3739 87.6017 99.3739Z"
          fill="#FCB47E"/>
    <path d="M91.3575 93.7225L91.379 93.2267C87.8368 93.0754 85.569 90.3673 84.2906 88.1216L83.8594 88.3675C85.1995 90.7214 87.588 93.5616 91.3575 93.7225Z"
          fill="#374263"/>
    <path d="M101.582 266.35L125.603 266.439C126.44 266.441 127.111 265.736 127.051 264.902C127.051 264.892 127.05 264.881 127.049 264.871C127.033 264.688 127.012 264.499 126.984 264.31C126.903 263.67 126.733 263.031 126.435 262.629C125.301 261.114 123.092 260.417 119.158 258.841C116.689 257.848 114.594 256.534 113.673 255.92C113.374 255.719 112.985 255.768 112.723 256.016C107.955 260.644 105.041 259.644 104.176 257.724C103.514 256.261 102.568 256.563 102.306 256.989C101.5 258.326 101.047 262.247 100.862 264.213C100.838 264.424 100.821 264.619 100.81 264.774C100.781 265.141 100.763 265.363 100.763 265.363C100.672 265.875 101.066 266.348 101.582 266.35Z"
          fill="#374263"/>
    <path d="M117.786 261.357C119.494 260.536 119.247 258.773 119.245 258.755L118.833 258.816C118.841 258.876 119.031 260.295 117.605 260.98L117.786 261.357Z"
          fill="white"/>
    <path d="M119.895 262.072C121.467 261.192 121.306 259.662 121.298 259.597L120.884 259.645C120.89 259.699 121.015 260.968 119.691 261.709L119.895 262.072Z"
          fill="white"/>
    <path d="M106.339 260.975C107.946 260.981 109.403 260.254 109.427 260.241L109.238 259.87C109.201 259.89 105.55 261.707 103.685 259.368L103.359 259.627C104.179 260.656 105.291 260.971 106.339 260.975Z"
          fill="white"/>
    <path d="M103.744 264.487L103.742 264.903L117.74 264.955L117.742 264.538L103.744 264.487Z" fill="white"/>
    <path d="M119.537 264.542L119.535 264.958L122.846 264.971L122.847 264.554L119.537 264.542Z" fill="white"/>
    <path d="M56.5979 266.35L80.6189 266.439C81.4553 266.441 82.1268 265.736 82.0662 264.902C82.0656 264.892 82.0645 264.881 82.0639 264.871C82.0481 264.688 82.0265 264.499 81.9993 264.31C81.9183 263.67 81.7483 263.031 81.4497 262.629C80.3163 261.114 78.1069 260.417 74.1731 258.841C71.7041 257.848 69.6086 256.534 68.6883 255.92C68.3891 255.719 67.9998 255.768 67.7375 256.016C62.9695 260.644 60.0557 259.644 59.1904 257.724C58.5291 256.261 57.5834 256.563 57.3204 256.989C56.5152 258.326 56.0619 262.247 55.8771 264.213C55.8539 264.424 55.8369 264.619 55.825 264.774C55.7961 265.141 55.7785 265.363 55.7785 265.363C55.6884 265.875 56.0811 266.348 56.5979 266.35Z"
          fill="#374263"/>
    <path d="M72.8052 261.357C74.5137 260.536 74.2666 258.773 74.2644 258.755L73.8524 258.816C73.8609 258.876 74.0507 260.295 72.625 260.98L72.8052 261.357Z"
          fill="white"/>
    <path d="M74.9105 262.072C76.483 261.192 76.3215 259.662 76.3135 259.597L75.8999 259.645C75.9061 259.699 76.0302 260.968 74.707 261.709L74.9105 262.072Z"
          fill="white"/>
    <path d="M61.3545 260.975C62.9616 260.981 64.4191 260.254 64.4429 260.241L64.2536 259.87C64.2168 259.89 60.5652 261.707 58.7008 259.368L58.375 259.627C59.195 260.656 60.3068 260.971 61.3545 260.975Z"
          fill="white"/>
    <path d="M58.7594 264.487L58.7578 264.904L72.7556 264.956L72.7571 264.539L58.7594 264.487Z" fill="white"/>
    <path d="M74.5523 264.543L74.5508 264.959L77.8612 264.971L77.8628 264.555L74.5523 264.543Z" fill="white"/>
    <path d="M70.8711 185.592L151.108 172.923C152.76 172.663 153.897 171.097 153.637 169.446L145.484 117.808C145.223 116.156 143.658 115.018 142.007 115.279L61.7693 127.947C60.1175 128.208 58.9796 129.773 59.2403 131.424L67.3935 183.063C67.6547 184.715 69.2193 185.853 70.8711 185.592Z"
          fill="#008DFF"/>
    <path d="M86.7294 164.631L72.2851 166.911C71.838 166.982 71.4141 166.674 71.3433 166.226L70.9047 163.45C70.8338 163.003 71.1421 162.579 71.5898 162.508L86.0341 160.228C86.4812 160.157 86.9051 160.465 86.9759 160.913L87.4139 163.689C87.4848 164.136 87.1765 164.56 86.7294 164.631Z"
          fill="white"/>
    <path d="M105.823 161.616L91.3782 163.897C90.9311 163.968 90.5073 163.659 90.4364 163.212L89.9984 160.436C89.9276 159.988 90.2358 159.565 90.6835 159.494L105.128 157.213C105.575 157.142 105.999 157.45 106.07 157.898L106.508 160.674C106.578 161.122 106.27 161.546 105.823 161.616Z"
          fill="white"/>
    <path d="M124.912 158.602L110.468 160.883C110.021 160.954 109.597 160.645 109.526 160.198L109.088 157.421C109.017 156.974 109.326 156.551 109.773 156.48L124.218 154.199C124.665 154.128 125.089 154.436 125.159 154.884L125.598 157.66C125.668 158.107 125.36 158.531 124.912 158.602Z"
          fill="white"/>
    <path d="M144.007 155.587L129.562 157.868C129.115 157.939 128.691 157.631 128.621 157.183L128.182 154.407C128.111 153.96 128.419 153.536 128.867 153.465L143.311 151.184C143.759 151.113 144.182 151.422 144.253 151.869L144.692 154.645C144.762 155.093 144.454 155.516 144.007 155.587Z"
          fill="white"/>
    <path d="M145.188 164.228L126.185 167.228C125.641 167.314 125.125 166.939 125.039 166.395L124.657 163.972C124.571 163.427 124.946 162.911 125.49 162.825L144.494 159.825C145.038 159.739 145.554 160.114 145.64 160.658L146.022 163.081C146.108 163.626 145.733 164.142 145.188 164.228Z"
          fill="white"/>
    <path d="M71.5665 143.836L70.6536 138.053C70.4541 136.79 71.32 135.599 72.5836 135.4L83.8161 133.626C85.0798 133.427 86.2703 134.292 86.4698 135.556L87.3827 141.338C87.5822 142.602 86.7163 143.793 85.4526 143.992L74.2202 145.766C72.9565 145.965 71.7659 145.099 71.5665 143.836ZM72.6805 136.015C71.7557 136.161 71.1228 137.032 71.2684 137.956L72.1813 143.739C72.3275 144.664 73.1985 145.297 74.1227 145.151L85.3557 143.377C86.2805 143.231 86.9135 142.361 86.7679 141.436L85.855 135.654C85.7088 134.729 84.8378 134.096 83.9136 134.241L72.6805 136.015Z"
          fill="white"/>
    <path d="M146.376 121.561L145.816 121.649L147.77 134.02L148.33 133.932L146.376 121.561Z" fill="#2E4882"/>
    <path d="M105.659 180.386L105.57 179.826L151.061 172.643C151.785 172.529 152.423 172.137 152.858 171.54C153.292 170.942 153.468 170.214 153.354 169.49L149.401 144.453L149.96 144.364L153.913 169.402C154.051 170.276 153.839 171.154 153.315 171.873C152.792 172.593 152.022 173.065 151.149 173.204L105.659 180.386Z"
          fill="#2E4882"/>
    <path d="M97.7397 181.052L80.8906 183.715L80.9792 184.276L97.8283 181.613L97.7397 181.052Z" fill="#2E4882"/>
    <path d="M128.866 115.68C129.218 115.787 129.396 116.18 129.239 116.514C128.959 117.113 128.496 117.74 128.171 117.761C127.598 117.797 127.887 116.817 128.109 116.085C128.206 115.763 128.544 115.582 128.866 115.68Z"
          fill="#FCB47E"/>
    <path d="M127.882 115.666C128.118 115.826 128.216 116.127 128.115 116.394C127.863 117.06 127.321 118.021 126.775 117.935C126.428 117.881 126.658 116.839 126.885 115.991C126.995 115.581 127.53 115.428 127.882 115.666Z"
          fill="#FCB47E"/>
    <path d="M126.455 115.313C126.783 115.382 126.996 115.7 126.931 116.028C126.79 116.734 126.43 117.662 125.699 117.924C125.073 118.149 125.43 116.661 125.654 115.747C125.732 115.426 126.05 115.228 126.373 115.295L126.455 115.313Z"
          fill="#FCB47E"/>
    <path d="M125.287 114.528C125.882 114.632 125.965 115.226 125.812 115.618C125.531 116.335 125.042 117.147 124.591 117.257C124.109 117.376 124.376 116.178 124.533 115.261C124.604 114.848 124.921 114.464 125.287 114.528Z"
          fill="#FCB47E"/>
    <path d="M64.1663 146.897C64.1663 146.897 54.7778 133.147 69.3094 123.347L77.6331 99.9372L77.6337 99.7808C67.8859 99.7315 57.4094 105.695 51.7365 114.053C42.2499 128.03 43.2036 144.743 59.0867 153.36L64.1663 146.897Z"
          fill="white"/>
    <path d="M68.9296 126.278L68.4258 126.179L69.8436 118.977L70.3474 119.076L68.9296 126.278Z" fill="#3F5A9F"/>
    <path d="M62.5599 153.585C55.7151 149.872 51.2492 144.423 49.6438 137.827C47.8129 130.303 49.7571 121.808 55.1195 113.909L55.5439 114.197C50.2649 121.976 48.3461 130.325 50.1425 137.705C51.7121 144.156 56.0908 149.492 62.8041 153.134L62.5599 153.585Z"
          fill="#3F5A9F"/>
    <path d="M63.28 148.029C63.756 148.41 65.2423 149.687 65.8436 149.79C66.4012 149.885 69.4799 150.014 69.3937 150.665C69.3031 151.346 67.203 150.816 67.2234 151.366C67.2359 151.705 71.3357 152.811 70.9232 153.529C70.6523 154 68.261 152.992 68.2122 153.288C68.1675 153.563 71.3731 154.19 71.007 154.908C70.6234 155.661 67.5385 153.764 67.3815 154.121C67.3039 154.298 71.0495 155.644 70.735 156.222C70.3146 156.996 67.4382 155.091 67.216 155.427C67.1067 155.593 68.2434 156.084 68.8826 156.462C69.2368 156.672 69.1251 156.991 68.8458 156.979C65.9512 156.85 62.32 153.329 61.8565 153.164C61.1669 152.917 60.4976 152.661 59.8477 152.395L63.28 148.029Z"
          fill="#FCB47E"/>
    <path d="M63.3734 129.765L62.9297 129.506C64.3067 127.141 66.4056 124.996 69.1676 123.134L69.4543 123.559C66.7569 125.378 64.7113 127.466 63.3734 129.765Z"
          fill="#3F5A9F"/>
    <path d="M369.366 101.081C369.372 101.278 369.377 101.471 369.383 101.668C370.089 125.767 367.616 144.551 363.432 159.188L351.014 166.91L361.227 165.329L361.519 165.285C355.979 181.372 348.318 191.765 341.08 198.449C336.579 202.618 332.239 205.347 328.678 207.114C328.443 207.233 328.213 207.346 327.982 207.454C327.409 207.73 326.853 207.976 326.324 208.202L319.493 208.559C319.4 208.241 319.311 207.927 319.226 207.609C319.168 207.409 319.114 207.21 319.065 207.01C318.988 206.749 318.922 206.482 318.855 206.221C310.782 175.113 320.956 150.3 334.245 132.613C334.281 132.553 334.326 132.498 334.376 132.437C339.001 126.3 344.003 121.02 348.734 116.641L351.754 124.331L352.188 113.559C360.429 106.441 367.284 102.289 368.968 101.309C369.23 101.155 369.366 101.081 369.366 101.081Z"
          fill="#9AADE5"/>
    <path d="M369.612 101.194L369.386 101.668L355.358 131.04L355.105 131.56L351.283 139.569L351.152 139.836L338.958 165.367L338.94 165.401L319.069 207.01L318.769 207.633L318.295 208.622L317.699 208.653L318.168 207.664L318.859 206.221L338.469 165.161L338.835 164.399L368.972 101.309L369.137 100.963L369.612 101.194Z"
          fill="white"/>
    <path d="M368.456 127.774L351.062 139.738L351.323 140.116L368.716 128.152L368.456 127.774Z" fill="white"/>
    <path d="M368.563 121.934L354.93 131.312L355.19 131.69L368.824 122.312L368.563 121.934Z" fill="white"/>
    <path d="M334.686 132.387L334.23 132.446L338.51 165.449L338.965 165.39L334.686 132.387Z" fill="white"/>
    <path d="M316.75 213.894C316.75 213.894 332.941 221.544 355.976 207.81L348.507 204.266L360.699 204.755C369.689 198.466 379.557 188.879 389.801 174.454L386.951 173.103L390.647 173.25C392.374 170.784 394.112 168.177 395.857 165.424C395.857 165.424 389.093 164.824 379.423 165.942L374.459 172.664L375.866 166.421C356.092 169.422 327.306 179.782 316.75 213.894Z"
          fill="#BAC8F3"/>
    <path d="M395.749 165.215L315.406 212.17L315.668 212.618L396.01 165.663L395.749 165.215Z" fill="white"/>
    <path d="M374.94 177.605L374.891 178.084L386.392 179.269L386.441 178.79L374.94 177.605Z" fill="white"/>
    <path d="M369.467 180.705L369.383 181.179L382.796 183.569L382.88 183.094L369.467 180.705Z" fill="white"/>
    <path d="M335.677 184.365L335.273 183.911C342.017 177.919 350.226 173.245 359.674 170.02L359.87 170.596C350.5 173.794 342.36 178.426 335.677 184.365Z"
          fill="#2E4882"/>
    <path d="M174.793 146.007C174.821 146.203 174.847 146.393 174.875 146.589C178.204 170.467 183.78 188.574 190.35 202.307L203.884 207.845L193.55 207.993L193.254 207.998C201.404 222.933 210.693 231.901 218.945 237.282C224.079 240.641 228.814 242.607 232.621 243.754C232.872 243.832 233.118 243.905 233.364 243.974C233.975 244.15 234.564 244.299 235.123 244.433L241.917 243.644C241.957 243.315 241.992 242.991 242.022 242.663C242.046 242.457 242.066 242.25 242.081 242.045C242.113 241.775 242.135 241.501 242.157 241.232C244.92 209.213 230.745 186.448 214.687 171.229C214.642 171.176 214.588 171.129 214.529 171.078C208.944 165.799 203.13 161.429 197.734 157.902L196.041 165.988L193.814 155.439C184.499 149.799 177.048 146.85 175.224 146.165C174.939 146.058 174.793 146.007 174.793 146.007Z"
          fill="#9AADE5"/>
    <path d="M174.574 146.159L174.876 146.589L193.613 173.205L193.949 173.675L199.056 180.933L199.229 181.175L215.517 204.31L215.54 204.341L242.082 242.046L242.482 242.61L243.114 243.506L243.707 243.437L243.08 242.54L242.157 241.233L215.964 204.025L215.477 203.336L175.224 146.166L175.004 145.852L174.574 146.159Z"
          fill="white"/>
    <path d="M180.139 172.155L179.945 172.572L199.093 181.462L199.286 181.045L180.139 172.155Z" fill="white"/>
    <path d="M179.057 166.447L178.863 166.863L193.872 173.831L194.065 173.415L179.057 166.447Z" fill="white"/>
    <path d="M214.673 171.058L214.215 171.076L215.509 204.328L215.968 204.31L214.673 171.058Z" fill="white"/>
    <path d="M245.517 248.446C245.517 248.446 230.831 258.693 205.826 248.999L212.598 244.257L200.659 246.776C190.744 242.077 179.414 234.274 166.904 221.762L169.489 219.954L165.869 220.716C163.755 218.573 161.606 216.294 159.426 213.871C159.426 213.871 165.995 212.149 175.716 211.637L181.733 217.435L179.303 211.515C199.299 211.17 229.411 216.576 245.517 248.446Z"
          fill="#BAC8F3"/>
    <path d="M159.511 213.63L159.328 214.115L246.38 246.99L246.563 246.506L159.511 213.63Z" fill="white"/>
    <path d="M182.059 222.372L170.918 225.463L171.047 225.926L182.188 222.836L182.059 222.372Z" fill="white"/>
    <path d="M187.998 224.552L175.172 229.149L175.334 229.603L188.16 225.006L187.998 224.552Z" fill="white"/>
    <path d="M221.922 222.494L222.245 221.978C214.595 217.196 205.721 213.96 195.867 212.358L195.77 212.958C205.543 214.546 214.342 217.754 221.922 222.494Z"
          fill="#2E4882"/>
    <path d="M248.744 263.294H232.36C227.026 263.294 222.643 259.143 222.422 253.886L213.18 92.6571C212.948 87.0834 217.463 82.4418 223.118 82.4418H242.011L248.744 263.294Z"
          fill="#008DFF"/>
    <path d="M329.661 92.6571L324.822 253.886C324.601 259.143 320.218 263.294 314.884 263.294H242.444C237.11 263.294 230.828 259.143 230.607 253.886L225.774 92.6571C225.541 87.0834 230.057 82.4418 235.712 82.4418H319.723C325.379 82.4418 329.894 87.0834 329.661 92.6571Z"
          fill="#DCE8FF"/>
    <path d="M245.774 93.5882H241.894C241.356 93.5882 240.875 93.8035 240.527 94.1577C240.172 94.5124 239.957 94.9935 239.957 95.5313C239.957 96.6012 240.825 97.4682 241.894 97.4682H245.774H309.127H313.007C313.545 97.4682 314.026 97.2528 314.375 96.8987C314.729 96.5507 314.944 96.0696 314.944 95.5313C314.944 94.4614 314.076 93.5876 313.007 93.5876H309.127L245.774 93.5882Z"
          fill="#3F5A9F"/>
    <path d="M312.211 157.042H243.229C241.912 157.042 240.831 156.001 240.78 154.685L239.068 109.807C239.015 108.418 240.127 107.263 241.517 107.263H313.923C315.313 107.263 316.424 108.418 316.372 109.807L314.66 154.685C314.609 156.001 313.528 157.042 312.211 157.042Z"
          fill="white"/>
    <path d="M260.425 187.347H249.758C247.883 187.347 246.363 185.827 246.363 183.952V179.104C246.363 177.229 247.883 175.71 249.758 175.71H260.425C262.299 175.71 263.819 177.229 263.819 179.104V183.952C263.819 185.827 262.299 187.347 260.425 187.347Z"
          fill="#647CE2"/>
    <path d="M260.425 206.337H249.758C247.883 206.337 246.363 204.817 246.363 202.943V198.095C246.363 196.22 247.883 194.701 249.758 194.701H260.425C262.299 194.701 263.819 196.221 263.819 198.095V202.943C263.819 204.817 262.299 206.337 260.425 206.337Z"
          fill="#647CE2"/>
    <path d="M260.425 225.328H249.758C247.883 225.328 246.363 223.808 246.363 221.934V217.085C246.363 215.211 247.883 213.691 249.758 213.691H260.425C262.299 213.691 263.819 215.211 263.819 217.085V221.934C263.819 223.808 262.299 225.328 260.425 225.328Z"
          fill="#647CE2"/>
    <path d="M260.425 244.318H249.758C247.883 244.318 246.363 242.798 246.363 240.924V236.075C246.363 234.201 247.883 232.681 249.758 232.681H260.425C262.299 232.681 263.819 234.201 263.819 236.075V240.924C263.819 242.799 262.299 244.318 260.425 244.318Z"
          fill="#3F5A9F"/>
    <path d="M282.581 187.347H271.914C270.039 187.347 268.52 185.827 268.52 183.952V179.104C268.52 177.229 270.039 175.71 271.914 175.71H282.581C284.455 175.71 285.975 177.229 285.975 179.104V183.952C285.975 185.827 284.455 187.347 282.581 187.347Z"
          fill="#647CE2"/>
    <path d="M282.581 206.337H271.914C270.039 206.337 268.52 204.817 268.52 202.943V198.095C268.52 196.22 270.039 194.701 271.914 194.701H282.581C284.455 194.701 285.975 196.221 285.975 198.095V202.943C285.975 204.817 284.455 206.337 282.581 206.337Z"
          fill="#647CE2"/>
    <path d="M282.581 225.328H271.914C270.039 225.328 268.52 223.808 268.52 221.934V217.085C268.52 215.211 270.039 213.691 271.914 213.691H282.581C284.455 213.691 285.975 215.211 285.975 217.085V221.934C285.975 223.808 284.455 225.328 282.581 225.328Z"
          fill="#647CE2"/>
    <path d="M282.581 244.318H271.914C270.039 244.318 268.52 242.798 268.52 240.924V236.075C268.52 234.201 270.039 232.681 271.914 232.681H282.581C284.455 232.681 285.975 234.201 285.975 236.075V240.924C285.975 242.799 284.455 244.318 282.581 244.318Z"
          fill="#647CE2"/>
    <path d="M304.737 187.347H294.07C292.196 187.347 290.676 185.827 290.676 183.952V179.104C290.676 177.229 292.196 175.71 294.07 175.71H304.737C306.612 175.71 308.131 177.229 308.131 179.104V183.952C308.131 185.827 306.612 187.347 304.737 187.347Z"
          fill="#647CE2"/>
    <path d="M304.737 206.337H294.07C292.196 206.337 290.676 204.817 290.676 202.943V198.095C290.676 196.22 292.196 194.701 294.07 194.701H304.737C306.612 194.701 308.131 196.221 308.131 198.095V202.943C308.131 204.817 306.612 206.337 304.737 206.337Z"
          fill="#647CE2"/>
    <path d="M304.737 225.328H294.07C292.196 225.328 290.676 223.808 290.676 221.934V217.085C290.676 215.211 292.196 213.691 294.07 213.691H304.737C306.612 213.691 308.131 215.211 308.131 217.085V221.934C308.131 223.808 306.612 225.328 304.737 225.328Z"
          fill="#647CE2"/>
    <path d="M304.737 244.318H294.07C292.196 244.318 290.676 242.798 290.676 240.924V236.075C290.676 234.201 292.196 232.681 294.07 232.681H304.737C306.612 232.681 308.131 234.201 308.131 236.075V240.924C308.131 242.799 306.612 244.318 304.737 244.318Z"
          fill="#3F5A9F"/>
    <path d="M263.589 187.347H252.922C251.047 187.347 249.527 185.827 249.527 183.952V179.104C249.527 177.229 251.047 175.71 252.922 175.71H263.589C265.463 175.71 266.983 177.229 266.983 179.104V183.952C266.982 185.827 265.463 187.347 263.589 187.347Z"
          fill="#6D92F0"/>
    <path d="M263.589 206.337H252.922C251.047 206.337 249.527 204.817 249.527 202.943V198.095C249.527 196.22 251.047 194.701 252.922 194.701H263.589C265.463 194.701 266.983 196.221 266.983 198.095V202.943C266.982 204.817 265.463 206.337 263.589 206.337Z"
          fill="#6D92F0"/>
    <path d="M263.589 225.328H252.922C251.047 225.328 249.527 223.808 249.527 221.934V217.085C249.527 215.211 251.047 213.691 252.922 213.691H263.589C265.463 213.691 266.983 215.211 266.983 217.085V221.934C266.982 223.808 265.463 225.328 263.589 225.328Z"
          fill="#6D92F0"/>
    <path d="M263.589 244.318H252.922C251.047 244.318 249.527 242.798 249.527 240.924V236.075C249.527 234.201 251.047 232.681 252.922 232.681H263.589C265.463 232.681 266.983 234.201 266.983 236.075V240.924C266.982 242.799 265.463 244.318 263.589 244.318Z"
          fill="#3F5A9F"/>
    <path d="M285.745 187.347H275.078C273.203 187.347 271.684 185.827 271.684 183.952V179.104C271.684 177.229 273.203 175.71 275.078 175.71H285.745C287.619 175.71 289.139 177.229 289.139 179.104V183.952C289.139 185.827 287.619 187.347 285.745 187.347Z"
          fill="#6D92F0"/>
    <path d="M285.745 206.337H275.078C273.203 206.337 271.684 204.817 271.684 202.943V198.095C271.684 196.22 273.203 194.701 275.078 194.701H285.745C287.619 194.701 289.139 196.221 289.139 198.095V202.943C289.139 204.817 287.619 206.337 285.745 206.337Z"
          fill="#6D92F0"/>
    <path d="M285.745 225.328H275.078C273.203 225.328 271.684 223.808 271.684 221.934V217.085C271.684 215.211 273.203 213.691 275.078 213.691H285.745C287.619 213.691 289.139 215.211 289.139 217.085V221.934C289.139 223.808 287.619 225.328 285.745 225.328Z"
          fill="#6D92F0"/>
    <path d="M285.745 244.318H275.078C273.203 244.318 271.684 242.798 271.684 240.924V236.075C271.684 234.201 273.203 232.681 275.078 232.681H285.745C287.619 232.681 289.139 234.201 289.139 236.075V240.924C289.139 242.799 287.619 244.318 285.745 244.318Z"
          fill="#6D92F0"/>
    <path d="M307.901 187.347H297.234C295.36 187.347 293.84 185.827 293.84 183.952V179.104C293.84 177.229 295.36 175.71 297.234 175.71H307.901C309.776 175.71 311.295 177.229 311.295 179.104V183.952C311.295 185.827 309.776 187.347 307.901 187.347Z"
          fill="#6D92F0"/>
    <path d="M307.901 206.337H297.234C295.36 206.337 293.84 204.817 293.84 202.943V198.095C293.84 196.22 295.36 194.701 297.234 194.701H307.901C309.776 194.701 311.295 196.221 311.295 198.095V202.943C311.295 204.817 309.776 206.337 307.901 206.337Z"
          fill="#6D92F0"/>
    <path d="M307.901 225.328H297.234C295.36 225.328 293.84 223.808 293.84 221.934V217.085C293.84 215.211 295.36 213.691 297.234 213.691H307.901C309.776 213.691 311.295 215.211 311.295 217.085V221.934C311.295 223.808 309.776 225.328 307.901 225.328Z"
          fill="#6D92F0"/>
    <path d="M307.901 244.318H297.234C295.36 244.318 293.84 242.798 293.84 240.924V236.075C293.84 234.201 295.36 232.681 297.234 232.681H307.901C309.776 232.681 311.295 234.201 311.295 236.075V240.924C311.295 242.799 309.776 244.318 307.901 244.318Z"
          fill="#3F5A9F"/>
    <path d="M263.589 187.663H252.921C250.875 187.663 249.211 185.999 249.211 183.952V179.103C249.211 177.057 250.875 175.393 252.921 175.393H263.589C265.635 175.393 267.299 177.057 267.299 179.103V183.952C267.299 185.999 265.635 187.663 263.589 187.663ZM252.921 176.026C251.224 176.026 249.844 177.407 249.844 179.103V183.952C249.844 185.649 251.224 187.03 252.921 187.03H263.589C265.286 187.03 266.666 185.649 266.666 183.952V179.103C266.666 177.406 265.286 176.026 263.589 176.026H252.921Z"
          fill="white"/>
    <path d="M263.589 206.653H252.921C250.875 206.653 249.211 204.989 249.211 202.943V198.094C249.211 196.048 250.875 194.383 252.921 194.383H263.589C265.635 194.383 267.299 196.048 267.299 198.094V202.943C267.299 204.99 265.635 206.653 263.589 206.653ZM252.921 195.017C251.224 195.017 249.844 196.397 249.844 198.095V202.944C249.844 204.64 251.224 206.021 252.921 206.021H263.589C265.286 206.021 266.666 204.64 266.666 202.944V198.095C266.666 196.397 265.286 195.017 263.589 195.017H252.921Z"
          fill="white"/>
    <path d="M263.589 225.644H252.921C250.875 225.644 249.211 223.98 249.211 221.934V217.085C249.211 215.038 250.875 213.374 252.921 213.374H263.589C265.635 213.374 267.299 215.038 267.299 217.085V221.934C267.299 223.98 265.635 225.644 263.589 225.644ZM252.921 214.008C251.224 214.008 249.844 215.388 249.844 217.085V221.934C249.844 223.631 251.224 225.011 252.921 225.011H263.589C265.286 225.011 266.666 223.631 266.666 221.934V217.085C266.666 215.388 265.286 214.008 263.589 214.008H252.921Z"
          fill="white"/>
    <path d="M263.589 244.635H252.921C250.875 244.635 249.211 242.971 249.211 240.924V236.075C249.211 234.029 250.875 232.365 252.921 232.365H263.589C265.635 232.365 267.299 234.029 267.299 236.075V240.924C267.299 242.971 265.635 244.635 263.589 244.635ZM252.921 232.998C251.224 232.998 249.844 234.378 249.844 236.075V240.924C249.844 242.622 251.224 244.002 252.921 244.002H263.589C265.286 244.002 266.666 242.622 266.666 240.924V236.075C266.666 234.378 265.286 232.998 263.589 232.998H252.921Z"
          fill="white"/>
    <path d="M285.745 187.663H275.078C273.032 187.663 271.367 185.999 271.367 183.952V179.103C271.367 177.057 273.032 175.393 275.078 175.393H285.745C287.791 175.393 289.456 177.057 289.456 179.103V183.952C289.456 185.999 287.791 187.663 285.745 187.663ZM275.078 176.026C273.381 176.026 272 177.407 272 179.103V183.952C272 185.649 273.381 187.03 275.078 187.03H285.745C287.442 187.03 288.822 185.649 288.822 183.952V179.103C288.822 177.406 287.442 176.026 285.745 176.026H275.078Z"
          fill="white"/>
    <path d="M285.745 206.653H275.078C273.032 206.653 271.367 204.989 271.367 202.943V198.094C271.367 196.048 273.032 194.383 275.078 194.383H285.745C287.791 194.383 289.456 196.048 289.456 198.094V202.943C289.456 204.99 287.791 206.653 285.745 206.653ZM275.078 195.017C273.381 195.017 272 196.397 272 198.095V202.944C272 204.64 273.381 206.021 275.078 206.021H285.745C287.442 206.021 288.822 204.64 288.822 202.944V198.095C288.822 196.397 287.442 195.017 285.745 195.017H275.078Z"
          fill="white"/>
    <path d="M285.745 225.644H275.078C273.032 225.644 271.367 223.98 271.367 221.934V217.085C271.367 215.038 273.032 213.374 275.078 213.374H285.745C287.791 213.374 289.456 215.038 289.456 217.085V221.934C289.456 223.98 287.791 225.644 285.745 225.644ZM275.078 214.008C273.381 214.008 272 215.388 272 217.085V221.934C272 223.631 273.381 225.011 275.078 225.011H285.745C287.442 225.011 288.822 223.631 288.822 221.934V217.085C288.822 215.388 287.442 214.008 285.745 214.008H275.078Z"
          fill="white"/>
    <path d="M285.745 244.635H275.078C273.032 244.635 271.367 242.971 271.367 240.924V236.075C271.367 234.029 273.032 232.365 275.078 232.365H285.745C287.791 232.365 289.456 234.029 289.456 236.075V240.924C289.456 242.971 287.791 244.635 285.745 244.635ZM275.078 232.998C273.381 232.998 272 234.378 272 236.075V240.924C272 242.622 273.381 244.002 275.078 244.002H285.745C287.442 244.002 288.822 242.622 288.822 240.924V236.075C288.822 234.378 287.442 232.998 285.745 232.998H275.078Z"
          fill="white"/>
    <path d="M307.901 187.663H297.234C295.188 187.663 293.523 185.999 293.523 183.952V179.103C293.523 177.057 295.188 175.393 297.234 175.393H307.901C309.948 175.393 311.612 177.057 311.612 179.103V183.952C311.612 185.999 309.948 187.663 307.901 187.663ZM297.234 176.026C295.537 176.026 294.157 177.407 294.157 179.103V183.952C294.157 185.649 295.537 187.03 297.234 187.03H307.901C309.599 187.03 310.978 185.649 310.978 183.952V179.103C310.978 177.406 309.598 176.026 307.901 176.026H297.234Z"
          fill="white"/>
    <path d="M307.901 206.653H297.234C295.188 206.653 293.523 204.989 293.523 202.943V198.094C293.523 196.048 295.188 194.383 297.234 194.383H307.901C309.948 194.383 311.612 196.048 311.612 198.094V202.943C311.612 204.99 309.948 206.653 307.901 206.653ZM297.234 195.017C295.537 195.017 294.157 196.397 294.157 198.095V202.944C294.157 204.64 295.537 206.021 297.234 206.021H307.901C309.599 206.021 310.978 204.64 310.978 202.944V198.095C310.978 196.397 309.598 195.017 307.901 195.017H297.234Z"
          fill="white"/>
    <path d="M307.901 225.644H297.234C295.188 225.644 293.523 223.98 293.523 221.934V217.085C293.523 215.038 295.188 213.374 297.234 213.374H307.901C309.948 213.374 311.612 215.038 311.612 217.085V221.934C311.612 223.98 309.948 225.644 307.901 225.644ZM297.234 214.008C295.537 214.008 294.157 215.388 294.157 217.085V221.934C294.157 223.631 295.537 225.011 297.234 225.011H307.901C309.599 225.011 310.978 223.631 310.978 221.934V217.085C310.978 215.388 309.598 214.008 307.901 214.008H297.234Z"
          fill="white"/>
    <path d="M307.901 244.635H297.234C295.188 244.635 293.523 242.971 293.523 240.924V236.075C293.523 234.029 295.188 232.365 297.234 232.365H307.901C309.948 232.365 311.612 234.029 311.612 236.075V240.924C311.612 242.971 309.948 244.635 307.901 244.635ZM297.234 232.998C295.537 232.998 294.157 234.378 294.157 236.075V240.924C294.157 242.622 295.537 244.002 297.234 244.002H307.901C309.599 244.002 310.978 242.622 310.978 240.924V236.075C310.978 234.378 309.598 232.998 307.901 232.998H297.234Z"
          fill="white"/>
    <path d="M306.088 263.718H242.448C236.968 263.718 230.418 259.432 230.186 253.904L225.353 92.6702C225.236 89.8895 226.241 87.2404 228.182 85.2168C230.161 83.1536 232.836 82.0174 235.715 82.0174H319.726C322.605 82.0174 325.281 83.1536 327.259 85.2168C329.2 87.2404 330.205 89.8895 330.088 92.6753L329.825 101.472L328.975 101.447L329.239 92.6447C329.346 90.0873 328.425 87.6603 326.646 85.805C324.829 83.9106 322.371 82.8674 319.726 82.8674H235.715C233.07 82.8674 230.612 83.9106 228.795 85.805C227.016 87.6597 226.095 90.0873 226.202 92.6396L231.035 253.874C231.247 258.938 237.344 262.868 242.447 262.868H306.088V263.718Z"
          fill="#3F5A9F"/>
    <path d="M328.23 126.179L325.426 219.931L326.276 219.956L329.08 126.205L328.23 126.179Z" fill="#3F5A9F"/>
    <path d="M309.101 62.5745V97.4664H245.856V62.5745C245.704 60.169 244.603 58.0168 242.938 56.4658C241.267 54.9149 239.019 53.9651 236.582 53.9651H299.827C302.271 53.9651 304.512 54.9149 306.183 56.4658C307.854 58.0168 308.949 60.169 309.101 62.5745Z"
          fill="white"/>
    <path d="M245.858 62.5745H227.305C227.457 60.169 228.558 58.0168 230.229 56.4658C231.9 54.9149 234.148 53.9651 236.585 53.9651C239.022 53.9651 241.27 54.9149 242.941 56.4658C244.605 58.0168 245.707 60.169 245.858 62.5745Z"
          fill="#2E4882"/>
    <path d="M309.385 97.7498H245.573V62.5745C245.431 60.3424 244.426 58.2401 242.745 56.6727C241.06 55.1098 238.871 54.2485 236.582 54.2485V53.6818H299.827C302.26 53.6818 304.585 54.5964 306.375 56.2573C308.163 57.9171 309.232 60.1537 309.384 62.5558L309.385 62.574V97.7498ZM246.139 97.1831H308.818V62.5836C308.673 60.33 307.669 58.2316 305.99 56.6733C304.305 55.1098 302.116 54.2485 299.828 54.2485H239.836C241.045 54.6837 242.165 55.3626 243.13 56.2573C244.919 57.9239 245.988 60.1611 246.139 62.5558L246.139 97.1831Z"
          fill="#2E4882"/>
    <path d="M313.009 97.752H241.897C240.672 97.752 239.676 96.7558 239.676 95.5318C239.676 94.938 239.908 94.3787 240.329 93.9576C240.741 93.5372 241.299 93.3048 241.897 93.3048H245.777V93.8715H241.897C241.452 93.8715 241.038 94.0438 240.731 94.356C240.416 94.6722 240.243 95.0887 240.243 95.5313C240.243 96.443 240.985 97.1848 241.897 97.1848H313.01C313.455 97.1848 313.869 97.0126 314.176 96.6998C314.492 96.3892 314.664 95.975 314.664 95.5307C314.664 94.6155 313.922 93.8704 313.01 93.8704H309.13V93.3037H313.01C314.235 93.3037 315.231 94.3027 315.231 95.5307C315.231 96.128 314.999 96.6856 314.577 97.1004C314.164 97.5197 313.607 97.752 313.009 97.752Z"
          fill="#2E4882"/>
    <path d="M315.703 265.748C315.703 267.315 327.216 268.591 341.413 268.591C355.611 268.591 367.124 267.315 367.124 265.748C367.124 265.717 367.117 265.693 367.111 265.663V257.978H315.721V265.645C315.709 265.681 315.703 265.711 315.703 265.748Z"
          fill="#F49B51"/>
    <path d="M341.416 260.891C355.615 260.891 367.125 259.618 367.125 258.048C367.125 256.478 355.615 255.205 341.416 255.205C327.217 255.205 315.707 256.478 315.707 258.048C315.707 259.618 327.217 260.891 341.416 260.891Z"
          fill="#FCC659"/>
    <path d="M309.629 256.475C309.629 258.043 321.141 259.318 335.339 259.318C349.537 259.318 361.049 258.043 361.049 256.475C361.049 256.445 361.043 256.421 361.037 256.39V248.705H309.646V256.372C309.635 256.409 309.629 256.439 309.629 256.475Z"
          fill="#F49B51"/>
    <path d="M335.342 251.618C349.541 251.618 361.051 250.346 361.051 248.776C361.051 247.205 349.541 245.933 335.342 245.933C321.143 245.933 309.633 247.205 309.633 248.776C309.633 250.346 321.143 251.618 335.342 251.618Z"
          fill="#FCC659"/>
    <path d="M315.703 247.203C315.703 248.77 327.216 250.046 341.413 250.046C355.611 250.046 367.124 248.77 367.124 247.203C367.124 247.172 367.117 247.148 367.111 247.118V239.433H315.721V247.1C315.709 247.136 315.703 247.167 315.703 247.203Z"
          fill="#F49B51"/>
    <path d="M341.416 242.346C355.615 242.346 367.125 241.073 367.125 239.503C367.125 237.933 355.615 236.66 341.416 236.66C327.217 236.66 315.707 237.933 315.707 239.503C315.707 241.073 327.217 242.346 341.416 242.346Z"
          fill="#FCC659"/>
    <path d="M341.41 268.893C351.867 268.893 367.424 268.055 367.424 265.745H366.817C366.817 266.632 358.091 268.285 341.41 268.285C340.803 268.285 340.202 268.283 339.606 268.278L339.602 268.885C340.198 268.89 340.802 268.893 341.41 268.893Z"
          fill="#2E4882"/>
    <path d="M331.217 268.66L331.246 268.054C328.642 267.929 326.256 267.759 324.15 267.547L324.09 268.151C326.205 268.363 328.603 268.535 331.217 268.66Z"
          fill="#2E4882"/>
    <path d="M351.558 258.937C361.22 258.058 361.22 256.84 361.22 256.439H360.613C360.613 256.735 358.976 257.652 351.504 258.332L351.558 258.937Z"
          fill="#2E4882"/>
    <path d="M335.205 259.586C338.095 259.586 340.934 259.533 343.642 259.429L343.618 258.822C338.782 259.008 333.434 259.03 328.451 258.879L328.434 259.487C330.64 259.552 332.918 259.586 335.205 259.586Z"
          fill="#2E4882"/>
    <path d="M322.051 259.186L322.091 258.58C319.35 258.4 316.958 258.166 314.984 257.887L314.898 258.489C316.888 258.77 319.295 259.004 322.051 259.186Z"
          fill="#2E4882"/>
    <path d="M358.702 241.925C367.271 241.051 367.271 239.947 367.271 239.532H366.664C366.664 239.542 366.445 240.525 358.641 241.321L358.702 241.925Z"
          fill="#2E4882"/>
    <path d="M341.255 242.679C344.211 242.679 347.102 242.624 349.846 242.516L349.823 241.909C347.086 242.016 344.203 242.071 341.255 242.071C335.979 242.071 330.912 241.896 326.601 241.564L326.555 242.169C330.881 242.503 335.964 242.679 341.255 242.679Z"
          fill="#2E4882"/>
    <path d="M306.59 237.931C306.59 239.498 318.102 240.774 332.3 240.774C346.498 240.774 358.01 239.498 358.01 237.931C358.01 237.9 358.004 237.876 357.998 237.846V230.161H306.608V237.828C306.596 237.864 306.59 237.894 306.59 237.931Z"
          fill="#F49B51"/>
    <path d="M332.303 233.074C346.502 233.074 358.012 231.801 358.012 230.231C358.012 228.661 346.502 227.388 332.303 227.388C318.104 227.388 306.594 228.661 306.594 230.231C306.594 231.801 318.104 233.074 332.303 233.074Z"
          fill="#FCC659"/>
    <path d="M311.359 230.231C311.359 231.287 320.735 232.143 332.3 232.143C343.865 232.143 353.241 231.286 353.241 230.231C353.241 229.175 343.865 228.319 332.3 228.319C320.735 228.319 311.359 229.175 311.359 230.231Z"
          fill="#F49B51"/>
    <path d="M302.346 69.3026H288.602V71.0026H302.346V69.3026Z" fill="#E1EAFF"/>
    <path d="M282.236 69.3026H254.602V71.0026H282.236V69.3026Z" fill="#E1EAFF"/>
    <path d="M302.345 76.6692H270.516V78.3692H302.345V76.6692Z" fill="#E1EAFF"/>
    <path d="M266.61 76.6692H254.602V78.3692H266.61V76.6692Z" fill="#E1EAFF"/>
    <path d="M296.416 84.6025H283.395V86.3025H296.416V84.6025Z" fill="#E1EAFF"/>
    <path d="M277.895 84.6025H254.602V86.3025H277.895V84.6025Z" fill="#E1EAFF"/>
    <path d="M276.926 156.618H259.691V157.468H276.926V156.618Z" fill="#3F5A9F"/>
    <path d="M312.211 157.468H283.613V156.618H312.211C313.305 156.618 314.194 155.762 314.236 154.669L315.735 115.388L316.584 115.421L315.085 154.701C315.026 156.252 313.763 157.468 312.211 157.468Z"
          fill="#3F5A9F"/>
    <path d="M152.816 97.5021C143.379 95.6202 134.203 101.748 132.32 111.189C130.438 120.627 136.565 129.807 146.007 131.686C155.445 133.568 164.625 127.441 166.504 117.998C168.386 108.561 162.258 99.3846 152.816 97.5021ZM163.17 117.335C162.438 121.009 160.318 124.179 157.2 126.259C154.085 128.34 150.348 129.085 146.67 128.352C139.087 126.84 134.144 119.44 135.657 111.853C136.389 108.179 138.506 105.009 141.624 102.929C144.63 100.922 148.219 100.159 151.769 100.767C151.898 100.789 152.024 100.814 152.153 100.84C159.615 102.324 164.514 109.509 163.239 116.959C163.217 117.084 163.195 117.21 163.17 117.335Z"
          fill="#FCC659"/>
    <path d="M163.237 116.959C163.215 117.084 163.194 117.21 163.169 117.336C162.437 121.009 160.317 124.179 157.198 126.259C154.084 128.341 150.346 129.085 146.669 128.353C139.085 126.84 134.142 119.44 135.655 111.853C136.388 108.179 138.504 105.009 141.622 102.929C144.628 100.921 148.217 100.158 151.768 100.766C151.898 100.788 152.023 100.814 152.152 100.839C159.614 102.323 164.512 109.509 163.237 116.959Z"
          fill="#F49B51"/>
    <path d="M146.727 125.019L147.173 122.418C145.683 122.137 144.217 121.408 143.426 120.61L144.339 118.99C145.161 119.767 146.416 120.486 147.859 120.733C149.688 121.045 151.105 120.201 151.356 118.733C151.599 117.316 150.744 116.268 148.97 115.17C146.519 113.69 145.099 112.227 145.482 109.986C145.848 107.848 147.646 106.485 150.081 106.505L150.527 103.903L152.124 104.176L151.696 106.675C153.233 106.99 154.218 107.584 154.89 108.149L153.955 109.739C153.467 109.337 152.508 108.59 150.859 108.308C148.876 107.968 147.926 109.025 147.749 110.056C147.52 111.396 148.359 112.228 150.441 113.539C152.909 115.075 154.019 116.644 153.627 118.936C153.278 120.971 151.536 122.635 148.808 122.619L148.35 125.298L146.727 125.019Z"
          fill="#FCC659"/>
    <path d="M163.264 113.403C163.254 113.286 163.241 113.169 163.228 113.051C162.781 109.073 160.642 105.496 157.359 103.214L157.576 102.901C160.949 105.246 163.146 108.921 163.603 112.985C163.619 113.13 163.633 113.25 163.643 113.372L163.264 113.403Z"
          fill="#2E4882"/>
    <path d="M157.358 103.214C154.719 101.378 151.502 100.519 148.302 100.791L148.27 100.413C151.559 100.132 154.863 101.016 157.576 102.901L157.358 103.214Z"
          fill="#2E4882"/>
    <path d="M160.341 123.741L160.051 123.496C161.237 122.09 162.119 120.5 162.668 118.771L163.03 118.886C162.465 120.663 161.56 122.297 160.341 123.741Z"
          fill="#2E4882"/>
    <path d="M162.78 103.733C161.651 102.343 160.322 101.142 158.828 100.167L159.051 99.8249C160.58 100.824 161.941 102.052 163.096 103.475L162.78 103.733Z"
          fill="#2E4882"/>
    <path d="M156.64 130.679L156.473 130.308C161.544 128.024 165.22 123.408 166.305 117.961C166.979 114.576 166.632 111.111 165.301 107.942L165.677 107.784C167.039 111.028 167.395 114.575 166.704 118.041C165.593 123.617 161.831 128.342 156.64 130.679Z"
          fill="#2E4882"/>
    <path d="M276.976 148.06C285.904 147.705 292.853 140.179 292.497 131.252C292.141 122.324 284.616 115.375 275.688 115.731C266.761 116.086 259.812 123.612 260.167 132.539C260.523 141.467 268.048 148.416 276.976 148.06Z"
          fill="#6D92F0"/>
    <path d="M275.737 140.134L268.316 132.501L269.129 131.711L275.42 138.182L283.514 121.408L284.534 121.9L275.737 140.134Z"
          fill="white"/>
    <path d="M138.109 105.085C139.7 105.893 140.794 107.133 141.542 108.686C142.29 107.133 143.389 105.887 144.98 105.079C143.389 104.27 142.29 103.031 141.542 101.477C140.794 103.03 139.7 104.277 138.109 105.085Z"
          fill="#FFE6A6"/>
    <path d="M152.059 127.257C152.983 127.727 153.619 128.447 154.054 129.35C154.488 128.447 155.127 127.723 156.051 127.253C155.127 126.784 154.488 126.063 154.054 125.161C153.619 126.063 152.983 126.788 152.059 127.257Z"
          fill="#FFE6A6"/>
</svg>
