<svg width="136" height="19" viewBox="0 0 136 19" fill="none" xmlns="http://www.w3.org/2000/svg">
<path opacity="0.8" d="M2.34128 13.183H16.763C17.6877 12.2475 18.2572 10.9698 18.2572 9.56119C18.2572 8.16286 17.696 6.89361 16.7833 5.95996H2.32103C1.40836 6.89361 0.847168 8.16286 0.847168 9.56119C0.847168 10.9698 1.41666 12.2475 2.34128 13.183Z" fill="url(#paint0_linear_407_2)"/>
<path d="M2.33873 13.1827C0.33826 11.1822 0.33826 7.93879 2.33873 5.93832L5.9183 2.35875C7.91877 0.35828 11.1622 0.35828 13.1627 2.35875L2.33873 13.1827Z" fill="url(#paint1_linear_407_2)"/>
<path d="M16.7634 5.95996C18.7638 7.96044 18.7638 11.2038 16.7634 13.2043L13.1838 16.7839C11.1833 18.7844 7.93993 18.7844 5.93945 16.7839L16.7634 5.95996Z" fill="url(#paint2_linear_407_2)"/>
<path d="M36.7827 11.3528C36.7827 13.0748 35.095 14.2727 31.9024 14.2727C29.6222 14.2727 27.7688 13.6489 26.3896 12.5137L27.5745 11.1534C28.6812 12.1391 30.1118 12.6005 31.9538 12.6005C33.7958 12.6005 34.7102 12.2627 34.7102 11.5392C34.7102 10.8157 33.7825 10.6163 31.71 10.441C29.1346 10.2287 26.7382 9.68053 26.7382 7.80711C26.7382 5.93368 28.7479 4.98682 31.529 4.98682C33.4987 4.98682 35.1997 5.46117 36.3465 6.32129L35.2131 7.70559C34.2206 6.96914 32.9977 6.67013 31.529 6.65721C30.3061 6.64429 28.8108 6.85655 28.8108 7.65575C28.8108 8.40512 30.0985 8.47896 31.8891 8.61739C34.7616 8.84257 36.7827 9.42767 36.7827 11.3509V11.3528Z" fill="#15122B"/>
<path d="M50.8178 5.26368V13.9996H48.7567V7.92154L44.8022 12.6005H44.6993L40.7448 7.92154V13.9996H38.7485V5.26368H40.9886L44.8003 9.88172L48.612 5.26368H50.8178Z" fill="#15122B"/>
<path d="M60.6718 12.152H55.2238L54.258 13.9996H52.056L56.8334 5.26368H59.0869L63.8644 13.9996H61.6356L60.6699 12.152H60.6718ZM59.8089 10.5296L57.9421 6.97283L56.0753 10.5296H59.8108H59.8089Z" fill="#15122B"/>
<path d="M72.9869 13.9977L70.3982 11.0279H67.1389V13.9977H65.0911V5.26183H71.3125C73.5145 5.26183 75.1756 6.24745 75.1756 8.14487C75.1756 9.63069 74.1584 10.5536 72.665 10.8913L75.4461 13.9977H72.9869ZM71.1963 9.37967C72.2783 9.37967 73.0764 9.1305 73.0764 8.15595C73.0764 7.1814 72.2783 6.93223 71.1963 6.93223H67.1256V9.37783H71.1963V9.37967Z" fill="#15122B"/>
<path d="M76.541 5.26368V6.98575H86.4579V5.26368H76.541Z" fill="#15122B"/>
<path d="M82.5167 6.98575H80.4556V13.9977H82.5167V6.98575Z" fill="#15122B"/>
<path d="M98.5593 11.6019C98.5593 13.1487 97.1936 13.9977 95.0296 13.9977H88.3187V5.26183H94.5134C96.6773 5.26183 98.0431 6.08503 98.0431 7.49518C98.0431 8.49372 97.3726 9.34276 96.0335 9.42951C97.4507 9.50519 98.5574 10.2158 98.5574 11.6001L98.5593 11.6019ZM90.355 8.80565H94.18C95.3001 8.80565 95.9954 8.63031 95.9954 7.82003C95.9954 7.00975 95.3001 6.8344 94.18 6.8344H90.355V8.80565ZM96.4468 11.3768C96.4468 10.4908 95.7649 10.3284 94.6048 10.3284H90.355V12.4251H94.6048C95.7649 12.4251 96.4468 12.2498 96.4468 11.3768Z" fill="#15122B"/>
<path d="M108.579 12.152H103.131L102.165 13.9996H99.9633L104.741 5.26368H106.994L111.772 13.9996H109.543L108.577 12.152H108.579ZM107.716 10.5296L105.849 6.97283L103.983 10.5296H107.718H107.716Z" fill="#15122B"/>
<path d="M123.371 5.26368V13.9996H121.567L115.102 7.68529V13.9996H113.106V5.26368H115.294L121.373 11.2531V5.26368H123.371Z" fill="#15122B"/>
<path d="M133.364 13.9977L129.886 9.89279L127.529 11.8271V13.9977H125.468V5.26183H127.529V9.6916L132.888 5.26183H135.593L131.394 8.70598L135.838 13.9977H133.364Z" fill="#15122B"/>
<defs>
<linearGradient id="paint0_linear_407_2" x1="-0.291302" y1="3.67392" x2="16.5581" y2="13.7997" gradientUnits="userSpaceOnUse">
<stop offset="0.31" stop-color="#0908A0" stop-opacity="0.1"/>
<stop offset="0.89" stop-color="#4A27FF"/>
</linearGradient>
<linearGradient id="paint1_linear_407_2" x1="2.65123" y1="9.9724" x2="9.84931" y2="1.74834" gradientUnits="userSpaceOnUse">
<stop stop-color="#E82CFF" stop-opacity="0.4"/>
<stop offset="1" stop-color="#FF8398"/>
</linearGradient>
<linearGradient id="paint2_linear_407_2" x1="9.46263" y1="16.5194" x2="17.5303" y2="8.9857" gradientUnits="userSpaceOnUse">
<stop stop-color="#20D2E6"/>
<stop offset="1" stop-color="#24EDDF" stop-opacity="0.5"/>
</linearGradient>
</defs>
</svg>
