<svg width="464" height="340" viewBox="0 0 464 340" fill="none" xmlns="http://www.w3.org/2000/svg">
    <path d="M417.509 316.752H386.773V316.982H417.509V316.752Z" fill="#F8FAFC"/>
    <path d="M307.377 319.275H299.312V319.506H307.377V319.275Z" fill="#F8FAFC"/>
    <path d="M385.847 308.205H368.039V308.436H385.847V308.205Z" fill="#F8FAFC"/>
    <path d="M88.76 309.744H48.6797V309.975H88.76V309.744Z" fill="#F8FAFC"/>
    <path d="M102.905 309.744H97.0312V309.975H102.905V309.744Z" fill="#F8FAFC"/>
    <path d="M208.943 313.65H122.008V313.881H208.943V313.65Z" fill="#F8FAFC"/>
    <path d="M221.238 260.795H42.0411C40.6357 260.795 39.2879 260.241 38.2942 259.253C37.3005 258.266 36.7422 256.926 36.7422 255.53V5.22151C36.7544 3.83297 37.3181 2.50545 38.3105 1.52789C39.3029 0.550341 40.6437 0.00189989 42.0411 0.00195313H221.238C221.934 0.00195313 222.623 0.138152 223.266 0.402777C223.909 0.667401 224.493 1.05527 224.985 1.54423C225.477 2.03319 225.867 2.61368 226.133 3.25254C226.4 3.8914 226.537 4.57612 226.537 5.26762V255.53C226.537 256.221 226.4 256.906 226.133 257.545C225.867 258.184 225.477 258.764 224.985 259.253C224.493 259.742 223.909 260.13 223.266 260.395C222.623 260.659 221.934 260.795 221.238 260.795ZM42.0411 0.18639C40.698 0.188828 39.4106 0.720094 38.461 1.66383C37.5113 2.60757 36.9766 3.88686 36.9742 5.22151V255.53C36.9766 256.864 37.5113 258.144 38.461 259.087C39.4106 260.031 40.698 260.562 42.0411 260.565H221.238C222.581 260.562 223.868 260.031 224.818 259.087C225.768 258.144 226.302 256.864 226.305 255.53V5.22151C226.302 3.88686 225.768 2.60757 224.818 1.66383C223.868 0.720094 222.581 0.188828 221.238 0.18639H42.0411Z"
          fill="#F8FAFC"/>
    <path d="M421.972 260.795H242.775C241.37 260.795 240.022 260.241 239.029 259.253C238.035 258.266 237.477 256.926 237.477 255.53V5.22151C237.489 3.83297 238.052 2.50545 239.045 1.52789C240.037 0.550341 241.378 0.00189989 242.775 0.00195313H421.972C423.378 0.00195313 424.725 0.556727 425.719 1.54423C426.713 2.53174 427.271 3.87108 427.271 5.26762V255.53C427.271 256.926 426.713 258.266 425.719 259.253C424.725 260.241 423.378 260.795 421.972 260.795ZM242.775 0.18639C241.432 0.188828 240.145 0.720094 239.195 1.66383C238.246 2.60757 237.711 3.88686 237.709 5.22151V255.53C237.711 256.864 238.246 258.144 239.195 259.087C240.145 260.031 241.432 260.562 242.775 260.565H421.972C423.315 260.562 424.603 260.031 425.552 259.087C426.502 258.144 427.037 256.864 427.039 255.53V5.22151C427.037 3.88686 426.502 2.60757 425.552 1.66383C424.603 0.720094 423.315 0.188828 421.972 0.18639H242.775Z"
          fill="#F8FAFC"/>
    <path d="M464 301.924H0V302.154H464V301.924Z" fill="#F8FAFC"/>
    <path d="M382.534 176.744H365.078V194.09H382.534V176.744Z" fill="#F1F5F9"/>
    <path d="M393.275 176.744H382.547V194.09H393.275V176.744Z" fill="#F8FAFC"/>
    <path d="M386.828 176.744V183.31L387.107 183.052L387.598 183.365L388.025 183.052L388.573 183.365L389.157 183.052L389.529 183.365L389.955 183.135V176.744H386.828Z"
          fill="#F8FAFC"/>
    <path opacity="0.7"
          d="M386.828 176.744V183.31L387.107 183.052L387.598 183.365L388.025 183.052L388.573 183.365L389.157 183.052L389.529 183.365L389.955 183.135V176.744H386.828Z"
          fill="#F8FAFC"/>
    <path d="M383.322 197.299H360.484V219.994H383.322V197.299Z" fill="#F1F5F9"/>
    <path d="M397.352 197.299H383.32V219.994H397.352V197.299Z" fill="#E2E8F0"/>
    <path d="M378.963 203.68H356.125L360.487 197.299H383.325L378.963 203.68Z" fill="#E2E8F0"/>
    <path d="M387.459 203.68H401.481L397.352 197.299H383.32L387.459 203.68Z" fill="#F1F5F9"/>
    <path d="M94.2048 199.659C101.196 199.659 106.863 194.027 106.863 187.081C106.863 180.134 101.196 174.502 94.2048 174.502C87.214 174.502 81.5469 180.134 81.5469 187.081C81.5469 194.027 87.214 199.659 94.2048 199.659Z"
          fill="#F8FAFC"/>
    <path d="M92.236 199.659C99.2268 199.659 104.894 194.027 104.894 187.081C104.894 180.134 99.2268 174.502 92.236 174.502C85.2453 174.502 79.5781 180.134 79.5781 187.081C79.5781 194.027 85.2453 199.659 92.236 199.659Z"
          fill="#F8FAFC"/>
    <path opacity="0.2"
          d="M99.1348 193.913C102.936 190.135 102.936 184.01 99.1348 180.232C95.3332 176.454 89.1695 176.454 85.3679 180.232C81.5662 184.01 81.5662 190.135 85.3679 193.913C89.1695 197.69 95.3332 197.69 99.1348 193.913Z"
          fill="white"/>
    <path d="M83.9941 187.075C83.9943 184.639 84.9212 182.293 86.5888 180.507C88.2565 178.722 90.5418 177.629 92.9864 177.447C92.7358 177.447 92.4946 177.447 92.244 177.447C89.6597 177.447 87.1813 178.467 85.354 180.283C83.5266 182.099 82.5 184.562 82.5 187.13C82.5 189.698 83.5266 192.161 85.354 193.977C87.1813 195.793 89.6597 196.813 92.244 196.813C92.4946 196.813 92.7358 196.813 92.9864 196.813C90.5233 196.628 88.2233 195.519 86.5532 193.71C84.8832 191.902 83.9682 189.529 83.9941 187.075Z"
          fill="#F8FAFC"/>
    <path d="M95.8288 190.592C95.1297 191.2 94.2502 191.566 93.3232 191.634V193.238H91.8663V191.671C91.1722 191.639 90.4856 191.515 89.8247 191.302C89.2656 191.131 88.7388 190.869 88.2656 190.527L89.0637 188.766C89.4599 189.051 89.894 189.281 90.3536 189.448C90.841 189.626 91.3494 189.741 91.8663 189.79V187.392C91.2734 187.256 90.6929 187.071 90.1309 186.839C89.6681 186.649 89.26 186.348 88.9431 185.962C88.6086 185.517 88.4412 184.969 88.4698 184.413C88.4648 184.031 88.5397 183.651 88.6899 183.299C88.84 182.946 89.0621 182.629 89.3421 182.366C90.0405 181.745 90.9304 181.377 91.8663 181.324V179.729H93.3139V181.296C94.3518 181.345 95.3619 181.646 96.2557 182.172L95.5319 183.943C94.8528 183.543 94.0974 183.289 93.3139 183.196V185.64C93.9006 185.761 94.4751 185.933 95.0307 186.156C95.4871 186.353 95.8907 186.653 96.2093 187.032C96.541 187.476 96.7082 188.02 96.6826 188.572C96.6861 188.949 96.6122 189.322 96.4654 189.67C96.3186 190.017 96.102 190.331 95.8288 190.592ZM91.0867 184.884C91.3204 185.067 91.5886 185.202 91.8755 185.28V183.233C91.5715 183.29 91.2908 183.434 91.0682 183.648C90.8979 183.823 90.8044 184.059 90.8083 184.303C90.8054 184.414 90.8291 184.525 90.8775 184.626C90.9259 184.727 90.9976 184.815 91.0867 184.884ZM94.1027 189.356C94.1873 189.277 94.2542 189.181 94.299 189.075C94.3437 188.968 94.3654 188.854 94.3626 188.738C94.3663 188.627 94.3449 188.516 94.3 188.414C94.255 188.312 94.1876 188.221 94.1027 188.148C93.8692 187.97 93.6051 187.836 93.3232 187.751V189.734C93.6155 189.689 93.8872 189.557 94.1027 189.356Z"
          fill="#F8FAFC"/>
    <path d="M259.572 86.1904C266.563 86.1904 272.23 80.5587 272.23 73.6118C272.23 66.6648 266.563 61.0332 259.572 61.0332C252.581 61.0332 246.914 66.6648 246.914 73.6118C246.914 80.5587 252.581 86.1904 259.572 86.1904Z"
          fill="#F8FAFC"/>
    <path d="M257.595 86.1904C264.586 86.1904 270.253 80.5587 270.253 73.6118C270.253 66.6648 264.586 61.0332 257.595 61.0332C250.605 61.0332 244.938 66.6648 244.938 73.6118C244.938 80.5587 250.605 86.1904 257.595 86.1904Z"
          fill="#F8FAFC"/>
    <path opacity="0.2"
          d="M264.479 80.4361C268.28 76.6582 268.28 70.5332 264.479 66.7554C260.677 62.9775 254.513 62.9776 250.712 66.7554C246.91 70.5332 246.91 76.6582 250.712 80.436C254.513 84.2139 260.677 84.2139 264.479 80.4361Z"
          fill="white"/>
    <path d="M249.338 73.5997C249.34 71.1633 250.267 68.8174 251.934 67.0309C253.601 65.2443 255.886 64.1487 258.33 63.9629C258.089 63.9629 257.838 63.9629 257.588 63.9629C255.003 63.9629 252.525 64.9831 250.698 66.799C248.87 68.6149 247.844 71.0777 247.844 73.6458C247.844 76.2139 248.87 78.6768 250.698 80.4927C252.525 82.3086 255.003 83.3287 257.588 83.3287C257.838 83.3287 258.089 83.3287 258.33 83.3287C255.868 83.1461 253.568 82.0387 251.898 80.2316C250.227 78.4245 249.312 76.0532 249.338 73.5997Z"
          fill="#F8FAFC"/>
    <path d="M261.187 77.1053C260.492 77.721 259.61 78.0879 258.681 78.1473V79.7612H257.243V78.1935C256.548 78.1594 255.861 78.0322 255.201 77.8154C254.638 77.646 254.108 77.3842 253.633 77.0407L254.431 75.2886C254.829 75.5693 255.262 75.7957 255.721 75.9618C256.211 76.1435 256.722 76.2612 257.243 76.3122V73.9053C256.646 73.7759 256.062 73.5938 255.498 73.3612C255.035 73.154 254.631 72.8374 254.32 72.439C253.98 71.999 253.808 71.453 253.837 70.899C253.838 70.5107 253.921 70.1269 254.081 69.7726C254.241 69.4183 254.474 69.1014 254.765 68.8425C255.466 68.2248 256.354 67.858 257.289 67.8005V66.2051H258.728V67.7728C259.765 67.8244 260.774 68.125 261.669 68.6489L260.945 70.4195C260.266 70.0201 259.511 69.7657 258.728 69.6725V72.1163C259.313 72.2442 259.888 72.42 260.444 72.6419C260.906 72.8296 261.311 73.1312 261.623 73.518C261.959 73.9563 262.13 74.4981 262.105 75.0488C262.106 75.4364 262.024 75.8198 261.866 76.1741C261.708 76.5283 261.476 76.8456 261.187 77.1053ZM256.445 71.4062C256.68 71.5895 256.952 71.7214 257.243 71.7935V69.7555C256.936 69.8078 256.652 69.949 256.426 70.1613C256.256 70.3368 256.162 70.5722 256.166 70.816C256.164 70.929 256.188 71.041 256.236 71.1433C256.285 71.2456 256.356 71.3356 256.445 71.4062ZM259.47 75.8788C259.631 75.7125 259.724 75.492 259.73 75.2609C259.732 75.1489 259.709 75.0378 259.662 74.9357C259.616 74.8336 259.547 74.7431 259.461 74.6707C259.229 74.4875 258.965 74.3498 258.681 74.265V76.2477C258.973 76.1993 259.246 76.0717 259.47 75.8788Z"
          fill="#F8FAFC"/>
    <path d="M170.651 210.119C175.678 210.119 179.754 206.068 179.754 201.072C179.754 196.076 175.678 192.025 170.651 192.025C165.623 192.025 161.547 196.076 161.547 201.072C161.547 206.068 165.623 210.119 170.651 210.119Z"
          fill="#F8FAFC"/>
    <path d="M169.236 210.119C174.264 210.119 178.34 206.068 178.34 201.072C178.34 196.076 174.264 192.025 169.236 192.025C164.209 192.025 160.133 196.076 160.133 201.072C160.133 206.068 164.209 210.119 169.236 210.119Z"
          fill="#F1F5F9"/>
    <path opacity="0.2"
          d="M169.239 208.018C173.104 208.018 176.236 204.905 176.236 201.065C176.236 197.224 173.104 194.111 169.239 194.111C165.375 194.111 162.242 197.224 162.242 201.065C162.242 204.905 165.375 208.018 169.239 208.018Z"
          fill="white"/>
    <path d="M163.325 201.031C163.327 199.273 163.998 197.582 165.203 196.296C166.408 195.01 168.057 194.224 169.821 194.096C169.645 194.096 169.468 194.096 169.283 194.096C167.47 194.161 165.753 194.923 164.494 196.221C163.235 197.518 162.531 199.251 162.531 201.054C162.531 202.856 163.235 204.589 164.494 205.886C165.753 207.184 167.47 207.946 169.283 208.011C169.462 208.021 169.642 208.021 169.821 208.011C168.049 207.885 166.391 207.093 165.185 205.797C163.978 204.5 163.313 202.796 163.325 201.031Z"
          fill="#F8FAFC"/>
    <path d="M171.829 203.588C171.322 204.023 170.687 204.285 170.019 204.335V205.497H168.98V204.362C168.481 204.34 167.988 204.25 167.513 204.095C167.111 203.973 166.732 203.786 166.391 203.542L166.966 202.278C167.251 202.483 167.563 202.647 167.894 202.767C168.243 202.897 168.608 202.977 168.98 203.007V201.282C168.555 201.186 168.138 201.053 167.736 200.886C167.402 200.754 167.108 200.538 166.882 200.259C166.64 199.938 166.519 199.543 166.539 199.143C166.535 198.867 166.589 198.593 166.698 198.339C166.807 198.085 166.967 197.856 167.17 197.667C167.685 197.216 168.34 196.952 169.026 196.92V195.768H170.065V196.902C170.812 196.935 171.538 197.151 172.181 197.529L171.662 198.802C171.173 198.513 170.63 198.331 170.065 198.267V200.019C170.487 200.11 170.9 200.236 171.3 200.397C171.633 200.535 171.927 200.754 172.153 201.033C172.392 201.349 172.513 201.736 172.497 202.131C172.492 202.406 172.431 202.678 172.316 202.928C172.201 203.179 172.035 203.404 171.829 203.588ZM168.414 199.484C168.581 199.614 168.774 199.708 168.98 199.761V198.267C168.762 198.305 168.562 198.408 168.404 198.562C168.28 198.687 168.21 198.856 168.209 199.032C168.202 199.118 168.217 199.205 168.252 199.284C168.288 199.364 168.344 199.432 168.414 199.484ZM170.585 202.702C170.704 202.582 170.771 202.419 170.771 202.251C170.772 202.171 170.755 202.093 170.721 202.021C170.687 201.949 170.638 201.886 170.576 201.836C170.413 201.7 170.223 201.6 170.019 201.54V202.97C170.229 202.934 170.425 202.842 170.585 202.702Z"
          fill="#F8FAFC"/>
    <path d="M201.015 42.4223C204.57 38.8894 204.57 33.1614 201.015 29.6285C197.46 26.0955 191.696 26.0955 188.14 29.6285C184.585 33.1614 184.585 38.8894 188.14 42.4223C191.696 45.9552 197.46 45.9552 201.015 42.4223Z"
          fill="#F8FAFC"/>
    <path d="M199.601 42.4223C203.156 38.8894 203.156 33.1614 199.601 29.6285C196.046 26.0955 190.282 26.0955 186.726 29.6285C183.171 33.1614 183.171 38.8894 186.726 42.4223C190.282 45.9552 196.046 45.9552 199.601 42.4223Z"
          fill="#F1F5F9"/>
    <path opacity="0.2"
          d="M193.169 42.9788C197.033 42.9788 200.166 39.8657 200.166 36.0255C200.166 32.1853 197.033 29.0723 193.169 29.0723C189.305 29.0723 186.172 32.1853 186.172 36.0255C186.172 39.8657 189.305 42.9788 193.169 42.9788Z"
          fill="white"/>
    <path d="M187.222 36.0126C187.224 34.2563 187.896 32.5661 189.101 31.2814C190.306 29.9967 191.955 29.2127 193.718 29.087C193.542 29.0778 193.365 29.0778 193.189 29.087C191.376 29.1526 189.659 29.9143 188.4 31.212C187.141 32.5097 186.438 34.2421 186.438 36.0448C186.438 37.8475 187.141 39.58 188.4 40.8777C189.659 42.1753 191.376 42.9371 193.189 43.0027C193.365 43.0027 193.542 43.0027 193.718 43.0027C191.946 42.8719 190.289 42.0775 189.083 40.78C187.878 39.4825 187.212 37.7787 187.222 36.0126Z"
          fill="#F8FAFC"/>
    <path d="M195.741 38.5394C195.242 38.9815 194.608 39.2446 193.941 39.2864V40.4483H192.902V39.3233C192.403 39.2966 191.911 39.2067 191.435 39.0558C191.033 38.9309 190.653 38.7408 190.312 38.4933L190.888 37.2299C191.171 37.4371 191.484 37.6018 191.816 37.7187C192.169 37.8461 192.537 37.9298 192.911 37.9677V36.2339C192.485 36.1446 192.068 36.0149 191.667 35.8466C191.334 35.7077 191.041 35.4891 190.814 35.2103C190.57 34.8904 190.448 34.4951 190.47 34.0945C190.466 33.8206 190.519 33.5488 190.626 33.2963C190.733 33.0439 190.892 32.8163 191.092 32.6282C191.606 32.1731 192.261 31.9063 192.948 31.872V30.7285H193.95V31.8536C194.697 31.8871 195.423 32.1024 196.066 32.4807L195.546 33.7533C195.058 33.4626 194.515 33.2743 193.95 33.2V34.9613C194.373 35.0479 194.786 35.1745 195.185 35.3394C195.516 35.4764 195.809 35.6916 196.038 35.9665C196.276 36.2822 196.398 36.6698 196.382 37.0639C196.386 37.3408 196.331 37.6154 196.22 37.8697C196.11 38.124 195.947 38.3522 195.741 38.5394ZM192.326 34.4357C192.5 34.5635 192.695 34.6603 192.902 34.7216V33.2461C192.684 33.2903 192.482 33.3922 192.317 33.5412C192.198 33.6696 192.132 33.8372 192.131 34.0115C192.129 34.0923 192.145 34.1727 192.179 34.2462C192.213 34.3198 192.263 34.3846 192.326 34.4357ZM194.507 37.6541C194.567 37.5967 194.614 37.5278 194.646 37.4517C194.677 37.3756 194.694 37.2939 194.693 37.2115C194.695 37.1306 194.679 37.0503 194.645 36.9767C194.611 36.9031 194.561 36.8383 194.498 36.7873C194.334 36.6555 194.144 36.5582 193.941 36.5014V37.9215C194.152 37.8881 194.348 37.7953 194.507 37.6541Z"
          fill="#F8FAFC"/>
    <path d="M114.508 244.633L101.812 240.695L115.983 241.442C112.874 236.066 111.492 233.419 109.023 228.273C112.568 232.285 114.415 234.323 118.303 238.418C119.306 232.447 120.78 226.563 122.711 220.822C121.777 225.932 121.372 231.123 121.505 236.315L121.764 236.37C125.971 231.636 130.531 227.225 135.406 223.174C130.748 228.135 126.607 233.551 123.045 239.34C128.322 237.36 133.64 235.476 138.997 233.687C133.634 236.601 128.39 239.607 123.156 242.761L136.278 246.92L122.711 246.099C125.569 249.428 127.054 251.107 130.135 254.473C126.321 251.974 124.437 250.729 120.716 248.239C121.125 251.706 121.745 255.146 122.572 258.54C120.716 254.334 119.899 252.241 118.47 248.119C115.807 260.78 116.503 273.018 119.073 285.643L115.881 285.071C114.003 272.707 114.51 260.101 117.375 247.925C114.164 251.217 112.661 252.887 109.877 256.225C111.488 253.119 113.289 250.113 115.268 247.224C110.693 248.22 108.438 248.728 103.956 249.742C108.067 247.695 110.174 246.662 114.508 244.633Z"
          fill="#F8FAFC"/>
    <path d="M109.992 248.996L121.722 242.818L107.941 246.23C109.983 240.374 110.855 237.515 112.303 232C109.574 236.611 108.145 238.944 105.111 243.721C102.992 238.024 100.426 232.502 97.436 227.205C99.3146 232.051 100.689 237.076 101.538 242.2L101.287 242.292C96.2607 238.403 90.9468 234.895 85.3906 231.798C90.8928 235.813 95.9759 240.367 100.563 245.391C94.9954 244.425 89.4274 243.562 83.8594 242.799C89.6779 244.644 95.3944 246.645 101.129 248.775L89.0098 255.295L102.187 251.975C100.007 255.774 98.8651 257.692 96.4709 261.575C99.756 258.412 101.371 256.835 104.554 253.709C104.805 257.189 104.842 260.681 104.665 264.166C105.695 259.694 106.104 257.49 106.735 253.165C111.727 265.153 113.36 277.298 113.231 290.144L116.256 288.991C115.776 276.494 112.911 264.202 107.811 252.768C111.588 255.415 113.379 256.779 116.748 259.574C114.579 256.823 112.246 254.206 109.76 251.735C114.4 251.864 116.757 251.938 121.341 252.104C116.924 250.841 114.623 250.204 109.992 248.996Z"
          fill="#F0F0F0"/>
    <path d="M121.469 255.935L112.922 251.435L122.963 253.879C121.469 249.618 120.838 247.534 119.78 243.513C121.766 246.861 122.814 248.567 125.023 252.053C126.56 247.918 128.422 243.91 130.591 240.064C129.223 243.596 128.222 247.258 127.603 250.992L127.788 251.066C131.452 248.228 135.327 245.669 139.379 243.412C135.364 246.339 131.655 249.661 128.308 253.325C132.367 252.618 136.434 251.988 140.511 251.435C136.27 252.8 132.104 254.202 127.928 255.788L136.753 260.537L127.139 258.102C128.726 260.869 129.561 262.271 131.306 265.102C128.921 262.796 127.742 261.644 125.413 259.366C125.23 261.904 125.205 264.451 125.339 266.992C124.587 263.728 124.281 262.123 123.826 258.969C120.188 267.684 119 276.564 119.121 285.925L116.912 285.085C117.256 275.975 119.347 267.014 123.074 258.683C120.29 260.611 119.01 261.607 116.578 263.645C118.159 261.639 119.86 259.729 121.673 257.927C118.267 258.029 116.578 258.084 113.228 258.204C116.439 257.291 118.091 256.811 121.469 255.935Z"
          fill="#F1F5F9"/>
    <path d="M125.368 301.911H104.757L102.734 269.275H127.391L125.368 301.911Z" fill="#F8FAFC"/>
    <path d="M128.992 270.947H100.939L100.438 266.604H129.493L128.992 270.947Z" fill="#F1F5F9"/>
    <path d="M347.33 301.807H385.805V232.32H347.33V301.807Z" fill="#F0F0F0"/>
    <path d="M336.443 301.807H347.328V232.32H336.443V301.807Z" fill="#E2E8F0"/>
    <path d="M351.032 256.252H381.805V237.928H351.032V256.252Z" fill="#F8FAFC"/>
    <path d="M351.032 276.58H381.805V258.256H351.032V276.58Z" fill="#F8FAFC"/>
    <path d="M351.032 296.9H381.805V278.577H351.032V296.9Z" fill="#F8FAFC"/>
    <path d="M364.867 242.001C364.867 242.404 364.987 242.798 365.213 243.133C365.438 243.468 365.758 243.73 366.133 243.884C366.508 244.038 366.92 244.078 367.318 244C367.716 243.921 368.081 243.727 368.368 243.442C368.655 243.157 368.85 242.794 368.93 242.399C369.009 242.003 368.968 241.593 368.813 241.221C368.658 240.849 368.395 240.53 368.057 240.306C367.72 240.082 367.324 239.963 366.918 239.963C366.374 239.963 365.852 240.178 365.468 240.56C365.083 240.942 364.867 241.46 364.867 242.001Z"
          fill="#F8FAFC"/>
    <path d="M365.93 242.001C365.93 242.404 366.05 242.798 366.275 243.133C366.501 243.468 366.821 243.73 367.196 243.884C367.57 244.038 367.983 244.078 368.381 244C368.779 243.921 369.144 243.727 369.431 243.442C369.718 243.157 369.913 242.794 369.992 242.399C370.071 242.003 370.031 241.593 369.875 241.221C369.72 240.849 369.457 240.53 369.12 240.306C368.783 240.082 368.386 239.963 367.981 239.963C367.437 239.963 366.915 240.178 366.53 240.56C366.146 240.942 365.93 241.46 365.93 242.001Z"
          fill="#F0F0F0"/>
    <path d="M364.867 262.251C364.867 262.654 364.987 263.048 365.213 263.383C365.438 263.718 365.758 263.98 366.133 264.134C366.508 264.288 366.92 264.328 367.318 264.25C367.716 264.171 368.081 263.977 368.368 263.692C368.655 263.407 368.85 263.044 368.93 262.649C369.009 262.253 368.968 261.843 368.813 261.471C368.658 261.099 368.395 260.78 368.057 260.556C367.72 260.332 367.324 260.213 366.918 260.213C366.374 260.213 365.852 260.428 365.468 260.81C365.083 261.192 364.867 261.71 364.867 262.251Z"
          fill="#F8FAFC"/>
    <path d="M365.93 262.251C365.93 262.654 366.05 263.048 366.275 263.383C366.501 263.718 366.821 263.98 367.196 264.134C367.57 264.288 367.983 264.328 368.381 264.25C368.779 264.171 369.144 263.977 369.431 263.692C369.718 263.407 369.913 263.044 369.992 262.649C370.071 262.253 370.031 261.843 369.875 261.471C369.72 261.099 369.457 260.78 369.12 260.556C368.783 260.332 368.386 260.213 367.981 260.213C367.437 260.213 366.915 260.428 366.53 260.81C366.146 261.192 365.93 261.71 365.93 262.251Z"
          fill="#F0F0F0"/>
    <path d="M364.867 282.501C364.867 282.904 364.987 283.298 365.213 283.633C365.438 283.968 365.758 284.23 366.133 284.384C366.508 284.538 366.92 284.578 367.318 284.5C367.716 284.421 368.081 284.227 368.368 283.942C368.655 283.657 368.85 283.294 368.93 282.899C369.009 282.503 368.968 282.093 368.813 281.721C368.658 281.349 368.395 281.03 368.057 280.806C367.72 280.582 367.324 280.463 366.918 280.463C366.374 280.463 365.852 280.678 365.468 281.06C365.083 281.442 364.867 281.96 364.867 282.501Z"
          fill="#F8FAFC"/>
    <path d="M365.93 282.501C365.93 282.904 366.05 283.298 366.275 283.633C366.501 283.968 366.821 284.23 367.196 284.384C367.57 284.538 367.983 284.578 368.381 284.5C368.779 284.421 369.144 284.227 369.431 283.942C369.718 283.657 369.913 283.294 369.992 282.899C370.071 282.503 370.031 282.093 369.875 281.721C369.72 281.349 369.457 281.03 369.12 280.806C368.783 280.582 368.386 280.463 367.981 280.463C367.437 280.463 366.915 280.678 366.53 281.06C366.146 281.442 365.93 281.96 365.93 282.501Z"
          fill="#F0F0F0"/>
    <path d="M147.749 56.0415C145.114 57.1113 136.362 55.8202 136.362 55.8202L135.434 56.2168C132.86 57.3041 130.073 57.8039 127.279 57.6794C124.484 57.5549 121.753 56.8093 119.287 55.4975C119.287 55.4975 112.095 55.7833 109.766 55.313C106.212 54.6029 100.913 51.8087 102.24 42.9927C103.567 34.1766 116.874 41.803 116.874 41.803C116.874 41.803 113.033 29.3997 125.997 33.1437C129.653 34.147 132.93 36.1989 135.419 39.043C137.908 41.8871 139.498 45.3972 139.991 49.1344C139.991 49.1344 160.184 50.9788 147.749 56.0415Z"
          fill="#F1F5F9"/>
    <path d="M112.494 67.5122C110.638 68.2499 104.616 67.3646 104.616 67.3646L103.966 67.6413C102.189 68.3871 100.267 68.7286 98.3403 68.6408C96.4134 68.5531 94.5308 68.0382 92.8301 67.1341C90.6335 67.2465 88.4317 67.2033 86.2413 67.005C83.7821 66.5162 80.1165 64.5796 81.0352 58.484C81.9539 52.3883 91.1597 57.6632 91.1597 57.6632C91.1597 57.6632 88.5056 49.0777 97.4701 51.669C100.001 52.3619 102.271 53.7814 103.994 55.7498C105.717 57.7183 106.818 60.1481 107.158 62.7352C107.158 62.7352 121.106 64.0079 112.494 67.5122Z"
          fill="#E2E8F0"/>
    <path d="M246.169 92.5355C243.533 93.6052 234.782 92.3234 234.782 92.3234L233.854 92.7199C231.279 93.8058 228.492 94.3041 225.697 94.178C222.903 94.0519 220.172 93.3047 217.707 91.9914C217.707 91.9914 210.515 92.2773 208.185 91.807C204.631 91.0969 199.342 88.3027 200.659 79.4958C201.977 70.689 215.294 78.297 215.294 78.297C215.294 78.297 211.452 65.8936 224.416 69.6469C228.072 70.6474 231.35 72.6973 233.839 75.54C236.328 78.3827 237.918 81.8919 238.41 85.6284C238.41 85.6284 258.604 87.4727 246.169 92.5355Z"
          fill="#F1F5F9"/>
    <path d="M359.623 55.9604C359.229 52.9902 357.963 50.2014 355.982 47.9427C354.001 45.6841 351.394 44.056 348.487 43.262C343.43 41.7957 341.592 43.4372 341.063 45.4752C337.773 41.4661 333.301 38.5829 328.275 37.2309C311.414 32.3617 316.443 48.4815 316.443 48.4815C316.443 48.4815 299.136 38.5773 297.419 50.04C295.703 61.5027 302.523 65.1269 307.163 66.0491C310.198 66.6577 319.543 66.2889 319.543 66.2889C322.749 67.994 326.3 68.9621 329.933 69.1217C333.566 69.2813 337.189 68.6284 340.534 67.2111L341.769 66.6946C341.769 66.6946 353.146 68.373 356.57 66.9805C361.99 64.7673 362.639 63.0336 361.108 61.7056C362.674 61.8937 364.262 61.8 365.794 61.429C375.678 57.4267 359.623 55.9604 359.623 55.9604Z"
          fill="#F1F5F9"/>
    <path d="M227.524 339.997C326.896 339.997 407.454 335.324 407.454 329.558C407.454 323.793 326.896 319.119 227.524 319.119C128.151 319.119 47.5938 323.793 47.5938 329.558C47.5938 335.324 128.151 339.997 227.524 339.997Z"
          fill="#F1F5F9"/>
    <path d="M313.226 85.7739C303.609 74.422 291.69 65.2139 278.248 58.7514C264.806 52.2889 250.143 48.7173 235.217 48.2699C220.291 47.8226 205.439 50.5096 191.629 56.1553C177.819 61.801 165.364 70.2785 155.076 81.0339C154.825 81.3002 154.479 81.4573 154.112 81.4712C153.746 81.485 153.388 81.3543 153.118 81.1077C152.983 80.9826 152.874 80.8322 152.798 80.6652C152.721 80.4982 152.679 80.3177 152.673 80.1344C152.667 79.951 152.697 79.7682 152.762 79.5966C152.828 79.4249 152.926 79.2678 153.053 79.1342C163.61 68.0958 176.391 59.3949 190.562 53.5999C204.734 47.8049 219.976 45.0462 235.293 45.504C250.61 45.9618 265.658 49.6258 279.453 56.2567C293.249 62.8875 305.481 72.336 315.351 83.9849L313.226 85.7739Z"
          fill="#263238"/>
    <path d="M315.677 85.9594H307.009C306.64 85.9594 306.286 85.8136 306.025 85.5542C305.764 85.2948 305.617 84.9429 305.617 84.5761C305.617 84.2092 305.764 83.8574 306.025 83.5979C306.286 83.3385 306.64 83.1928 307.009 83.1928H312.893V77.3462C312.893 76.9793 313.039 76.6274 313.3 76.368C313.561 76.1086 313.916 75.9629 314.285 75.9629C314.653 75.9653 315.006 76.1118 315.266 76.3707C315.527 76.6296 315.674 76.98 315.677 77.3462V85.9594Z"
          fill="#263238"/>
    <path d="M293.256 243.218L291.688 240.931C303.912 232.668 314.266 221.96 322.085 209.491C329.904 197.022 335.016 183.067 337.095 168.521C337.145 168.161 337.336 167.835 337.626 167.613C337.915 167.39 338.281 167.29 338.644 167.332C339.014 167.38 339.35 167.572 339.578 167.866C339.806 168.16 339.907 168.531 339.86 168.899C337.726 183.829 332.479 198.15 324.454 210.948C316.428 223.746 305.802 234.737 293.256 243.218Z"
          fill="#263238"/>
    <path d="M298.248 245.508L289.812 243.572L291.761 235.18C291.802 235.003 291.877 234.837 291.982 234.689C292.088 234.542 292.222 234.417 292.376 234.321C292.53 234.225 292.702 234.16 292.882 234.13C293.061 234.1 293.245 234.106 293.422 234.147C293.601 234.187 293.77 234.262 293.92 234.367C294.069 234.473 294.196 234.606 294.294 234.761C294.391 234.915 294.457 235.087 294.487 235.266C294.518 235.446 294.512 235.629 294.471 235.807L293.144 241.497L298.879 242.806C299.238 242.89 299.549 243.111 299.744 243.423C299.939 243.734 300.002 244.109 299.918 244.466C299.834 244.824 299.612 245.134 299.299 245.329C298.986 245.524 298.608 245.588 298.248 245.508Z"
          fill="#263238"/>
    <path d="M151.404 226.515C137.357 211.212 128.049 192.209 124.594 171.783L127.331 171.322C130.698 191.227 139.771 209.744 153.464 224.652C153.71 224.922 153.84 225.276 153.826 225.64C153.812 226.004 153.655 226.348 153.39 226.598C153.254 226.723 153.095 226.819 152.921 226.883C152.748 226.946 152.564 226.975 152.379 226.967C152.195 226.959 152.013 226.915 151.846 226.838C151.679 226.76 151.528 226.65 151.404 226.515Z"
          fill="#263238"/>
    <path d="M120.53 176.448C120.231 176.232 120.03 175.907 119.971 175.544C119.912 175.181 120 174.81 120.215 174.511L125.31 167.549L132.316 172.612C132.464 172.718 132.589 172.852 132.685 173.006C132.781 173.161 132.845 173.333 132.873 173.512C132.902 173.691 132.894 173.874 132.851 174.05C132.808 174.227 132.73 174.393 132.622 174.539C132.515 174.686 132.38 174.811 132.225 174.906C132.069 175.001 131.897 175.064 131.716 175.093C131.536 175.121 131.352 175.113 131.174 175.071C130.997 175.028 130.83 174.951 130.683 174.843L125.922 171.413L122.507 176.134C122.4 176.286 122.263 176.416 122.105 176.514C121.947 176.613 121.77 176.678 121.586 176.708C121.401 176.737 121.213 176.729 121.031 176.684C120.85 176.64 120.68 176.559 120.53 176.448Z"
          fill="#263238"/>
    <path d="M367.268 111.981H359.844L360.772 81.5488H366.34L367.268 111.981Z" fill="#263238"/>
    <path opacity="0.7" d="M367.268 111.981H359.844L360.772 81.5488H366.34L367.268 111.981Z" fill="white"/>
    <path d="M366.798 96.5303L366.714 93.5332H360.413L360.32 96.5303H366.798Z" fill="#407BFF"/>
    <path d="M360.5 90.5381H366.616L366.523 87.541H360.584L360.5 90.5381Z" fill="#407BFF"/>
    <path d="M366.974 102.53L366.881 99.5332H360.218L360.125 102.53H366.974Z" fill="#407BFF"/>
    <path d="M367.164 108.522L367.071 105.525H360.037L359.953 108.522H367.164Z" fill="#407BFF"/>
    <path d="M366.425 84.5459L366.333 81.5488H360.765L360.672 84.5459H366.425Z" fill="#407BFF"/>
    <path d="M379.651 111.981H372.227L373.155 81.5488H378.723L379.651 111.981Z" fill="#263238"/>
    <path opacity="0.7" d="M379.651 111.981H372.227L373.155 81.5488H378.723L379.651 111.981Z" fill="white"/>
    <path d="M379.174 96.5303L379.081 93.5332H372.78L372.688 96.5303H379.174Z" fill="#407BFF"/>
    <path d="M372.875 90.5381H378.991L378.898 87.541H372.968L372.875 90.5381Z" fill="#407BFF"/>
    <path d="M379.339 102.53L379.256 99.5332H372.584L372.5 102.53H379.339Z" fill="#407BFF"/>
    <path d="M379.539 108.522L379.446 105.525H372.421L372.328 108.522H379.539Z" fill="#407BFF"/>
    <path d="M378.807 84.5459L378.723 81.5488H373.155L373.062 84.5459H378.807Z" fill="#407BFF"/>
    <path d="M274.156 162.7H387.994V114.829L331.071 86.9238L274.156 114.829V162.7Z" fill="#407BFF"/>
    <path opacity="0.5" d="M274.156 162.7H387.994V114.829L331.071 86.9238L274.156 114.829V162.7Z" fill="white"/>
    <path d="M353.666 124.807H308.5V162.69H353.666V124.807Z" fill="#263238"/>
    <path d="M316.546 124.807H308.5V162.69H316.546V124.807Z" fill="#263238"/>
    <path opacity="0.5" d="M316.546 124.807H308.5V162.69H316.546V124.807Z" fill="white"/>
    <path d="M327.826 136.197H321.023V144.589H327.826V136.197Z" fill="#263238"/>
    <path opacity="0.6" d="M327.826 136.197H321.023V144.589H327.826V136.197Z" fill="white"/>
    <path d="M332.004 136.197H327.828V144.589H332.004V136.197Z" fill="#263238"/>
    <path opacity="0.4" d="M332.004 136.197H327.828V144.589H332.004V136.197Z" fill="white"/>
    <path d="M329.5 136.197V138.752L329.611 138.659L329.797 138.779L329.964 138.659L330.187 138.779L330.409 138.659L330.549 138.779L330.716 138.687V136.197H329.5Z"
          fill="#407BFF"/>
    <path opacity="0.7"
          d="M329.5 136.197V138.752L329.611 138.659L329.797 138.779L329.964 138.659L330.187 138.779L330.409 138.659L330.549 138.779L330.716 138.687V136.197H329.5Z"
          fill="#407BFF"/>
    <path d="M340.005 136.197H333.203V144.589H340.005V136.197Z" fill="#263238"/>
    <path opacity="0.6" d="M340.005 136.197H333.203V144.589H340.005V136.197Z" fill="white"/>
    <path d="M344.192 136.197H340.016V144.589H344.192V136.197Z" fill="#263238"/>
    <path opacity="0.4" d="M344.192 136.197H340.016V144.589H344.192V136.197Z" fill="white"/>
    <path d="M341.688 136.197V138.752L341.79 138.659L341.984 138.779L342.151 138.659L342.365 138.779L342.597 138.659L342.736 138.779L342.903 138.687V136.197H341.688Z"
          fill="#407BFF"/>
    <path opacity="0.7"
          d="M341.688 136.197V138.752L341.79 138.659L341.984 138.779L342.151 138.659L342.365 138.779L342.597 138.659L342.736 138.779L342.903 138.687V136.197H341.688Z"
          fill="#407BFF"/>
    <path d="M387.206 116.499L331.071 88.9721L274.937 116.499C274.718 116.607 274.48 116.67 274.237 116.686C273.993 116.702 273.749 116.67 273.518 116.592C273.287 116.514 273.074 116.392 272.891 116.232C272.707 116.072 272.557 115.878 272.45 115.66C272.342 115.443 272.278 115.206 272.262 114.964C272.246 114.723 272.278 114.48 272.356 114.25C272.435 114.021 272.558 113.809 272.719 113.627C272.88 113.445 273.075 113.296 273.294 113.189L331.071 84.8223L388.83 113.189C389.049 113.296 389.245 113.445 389.405 113.627C389.566 113.809 389.69 114.021 389.768 114.25C389.846 114.48 389.879 114.723 389.863 114.964C389.847 115.206 389.783 115.443 389.675 115.66C389.457 116.095 389.076 116.426 388.614 116.583C388.152 116.74 387.646 116.71 387.206 116.499Z"
          fill="#263238"/>
    <g opacity="0.5">
        <path d="M387.206 116.515L331.071 88.9877L274.937 116.515C274.718 116.622 274.48 116.686 274.237 116.702C273.993 116.717 273.749 116.686 273.518 116.608C273.287 116.53 273.074 116.407 272.891 116.247C272.707 116.087 272.557 115.893 272.45 115.676C272.342 115.458 272.278 115.222 272.262 114.98C272.246 114.738 272.278 114.496 272.356 114.266C272.435 114.036 272.558 113.825 272.719 113.642C272.88 113.46 273.075 113.311 273.294 113.204L331.071 84.8379L388.83 113.204C389.049 113.311 389.245 113.46 389.405 113.642C389.566 113.825 389.69 114.036 389.768 114.266C389.846 114.496 389.879 114.738 389.863 114.98C389.847 115.222 389.783 115.458 389.675 115.676C389.457 116.11 389.076 116.442 388.614 116.599C388.152 116.756 387.646 116.726 387.206 116.515Z"
              fill="white"/>
    </g>
    <path d="M353.655 124.807H345.609V162.69H353.655V124.807Z" fill="#263238"/>
    <path opacity="0.5" d="M353.655 124.807H345.609V162.69H353.655V124.807Z" fill="white"/>
    <path d="M345.621 150.252H319.016V162.701H345.621V150.252Z" fill="#263238"/>
    <path opacity="0.4" d="M345.621 150.252H319.016V162.701H345.621V150.252Z" fill="white"/>
    <path d="M303.251 146.236H298.75V162.679H303.251V146.236Z" fill="#407BFF"/>
    <path d="M319.009 151.934C318.024 151.934 317.08 151.545 316.384 150.854C315.688 150.162 315.297 149.224 315.297 148.245C315.297 147.267 315.688 146.329 316.384 145.637C317.08 144.945 318.024 144.557 319.009 144.557H345.615V151.934H319.009Z"
          fill="#407BFF"/>
    <path d="M321.02 148.237C321.02 148.633 320.902 149.02 320.68 149.349C320.459 149.678 320.145 149.935 319.777 150.086C319.409 150.238 319.004 150.277 318.613 150.2C318.222 150.123 317.864 149.932 317.582 149.652C317.3 149.373 317.109 149.016 317.031 148.628C316.953 148.24 316.993 147.837 317.145 147.472C317.298 147.106 317.556 146.793 317.887 146.574C318.218 146.354 318.608 146.236 319.006 146.236C319.54 146.236 320.052 146.447 320.43 146.822C320.808 147.198 321.02 147.707 321.02 148.237Z"
          fill="#263238"/>
    <path d="M301.314 146.236H281.891V162.679H301.314V146.236Z" fill="#407BFF"/>
    <path opacity="0.3" d="M301.314 146.236H281.891V162.679H301.314V146.236Z" fill="white"/>
    <path opacity="0.8"
          d="M295.495 153.61H292.22L293.519 149.58L287.719 155.344H290.995L289.695 159.374L295.495 153.61Z"
          fill="white"/>
    <path d="M135.86 218.067C146.12 218.067 154.438 209.801 154.438 199.605C154.438 189.408 146.12 181.143 135.86 181.143C125.599 181.143 117.281 189.408 117.281 199.605C117.281 209.801 125.599 218.067 135.86 218.067Z"
          fill="#407BFF"/>
    <path d="M132.977 218.067C143.238 218.067 151.556 209.801 151.556 199.605C151.556 189.408 143.238 181.143 132.977 181.143C122.716 181.143 114.398 189.408 114.398 199.605C114.398 209.801 122.716 218.067 132.977 218.067Z"
          fill="#407BFF"/>
    <path opacity="0.3"
          d="M132.977 218.067C143.238 218.067 151.556 209.801 151.556 199.605C151.556 189.408 143.238 181.143 132.977 181.143C122.716 181.143 114.398 189.408 114.398 199.605C114.398 209.801 122.716 218.067 132.977 218.067Z"
          fill="white"/>
    <path opacity="0.2"
          d="M132.985 213.801C140.873 213.801 147.267 207.447 147.267 199.608C147.267 191.77 140.873 185.416 132.985 185.416C125.097 185.416 118.703 191.77 118.703 199.608C118.703 207.447 125.097 213.801 132.985 213.801Z"
          fill="white"/>
    <path opacity="0.1"
          d="M120.865 199.608C120.867 196.033 122.227 192.59 124.674 189.969C127.121 187.347 130.474 185.741 134.062 185.471C133.709 185.471 133.347 185.416 132.985 185.416C129.197 185.416 125.565 186.911 122.886 189.573C120.208 192.234 118.703 195.844 118.703 199.608C118.703 203.372 120.208 206.982 122.886 209.644C125.565 212.306 129.197 213.801 132.985 213.801C133.347 213.801 133.709 213.801 134.062 213.745C130.473 213.478 127.119 211.872 124.672 209.25C122.224 206.629 120.865 203.185 120.865 199.608Z"
          fill="black"/>
    <g opacity="0.1">
        <path d="M139.696 204.734C138.663 205.639 137.357 206.177 135.984 206.265V208.626H133.858V206.33C132.842 206.28 131.837 206.094 130.87 205.776C130.046 205.533 129.27 205.149 128.578 204.642L129.738 202.069C130.31 202.479 130.934 202.81 131.594 203.056C132.311 203.32 133.06 203.491 133.821 203.563V200.04C132.953 199.844 132.102 199.576 131.279 199.238C130.597 198.955 129.998 198.508 129.534 197.938C129.041 197.286 128.794 196.483 128.838 195.669C128.832 195.107 128.943 194.551 129.163 194.033C129.383 193.516 129.709 193.049 130.119 192.663C131.147 191.752 132.456 191.216 133.831 191.141V188.799H135.956V191.095C137.476 191.168 138.955 191.611 140.262 192.386L139.204 194.977C138.209 194.393 137.103 194.02 135.956 193.88V197.467C136.815 197.649 137.656 197.906 138.471 198.233C139.144 198.515 139.737 198.959 140.197 199.524C140.693 200.167 140.942 200.965 140.902 201.774C140.917 202.323 140.817 202.87 140.61 203.379C140.402 203.888 140.091 204.35 139.696 204.734ZM132.708 196.435C133.057 196.698 133.454 196.892 133.877 197.006V194.009C133.438 194.085 133.032 194.287 132.708 194.59C132.47 194.84 132.334 195.169 132.327 195.512C132.312 195.685 132.339 195.859 132.405 196.019C132.471 196.18 132.575 196.322 132.708 196.435ZM137.144 202.991C137.271 202.874 137.371 202.731 137.438 202.572C137.505 202.413 137.538 202.241 137.533 202.069C137.537 201.904 137.504 201.74 137.434 201.59C137.365 201.44 137.263 201.307 137.134 201.202C136.797 200.937 136.413 200.737 136.002 200.612V203.526C136.439 203.453 136.843 203.25 137.162 202.945L137.144 202.991Z"
              fill="black"/>
    </g>
    <path d="M138.274 204.734C137.242 205.641 135.936 206.179 134.562 206.265V208.626H132.437V206.33C131.42 206.279 130.415 206.093 129.448 205.776C128.625 205.531 127.85 205.147 127.156 204.642L128.326 202.069C128.896 202.481 129.52 202.813 130.182 203.056C130.899 203.32 131.647 203.491 132.409 203.563V200.04C131.54 199.843 130.69 199.574 129.866 199.238C129.186 198.953 128.587 198.506 128.121 197.938C127.628 197.286 127.382 196.483 127.425 195.669C127.419 195.107 127.53 194.551 127.75 194.033C127.971 193.516 128.296 193.049 128.706 192.663C129.735 191.754 131.043 191.217 132.418 191.141V188.799H134.562V191.095C136.085 191.167 137.567 191.61 138.877 192.386L137.81 194.977C136.815 194.393 135.709 194.02 134.562 193.88V197.467C135.421 197.649 136.262 197.906 137.077 198.233C137.752 198.517 138.347 198.96 138.812 199.524C139.301 200.17 139.547 200.966 139.508 201.774C139.521 202.326 139.418 202.874 139.205 203.383C138.993 203.893 138.675 204.353 138.274 204.734ZM131.314 196.37C131.661 196.631 132.054 196.825 132.474 196.942V193.945C132.027 194.024 131.614 194.233 131.286 194.544C131.048 194.794 130.912 195.123 130.905 195.466C130.883 195.646 130.907 195.829 130.973 195.998C131.039 196.167 131.147 196.317 131.286 196.435L131.314 196.37ZM135.75 202.927C135.874 202.808 135.972 202.664 136.037 202.505C136.103 202.347 136.134 202.176 136.13 202.004C136.134 201.84 136.101 201.677 136.033 201.527C135.966 201.377 135.866 201.244 135.74 201.138C135.4 200.873 135.013 200.673 134.599 200.547V203.462C135.014 203.396 135.403 203.217 135.722 202.945L135.75 202.927Z"
          fill="#407BFF"/>
    <path d="M244.411 59.8848C251.666 52.6749 251.666 40.9853 244.411 33.7754C237.156 26.5655 225.392 26.5655 218.137 33.7754C210.882 40.9853 210.882 52.6749 218.137 59.8848C225.392 67.0947 237.156 67.0947 244.411 59.8848Z"
          fill="#407BFF"/>
    <path d="M246.447 51.0701C248.804 41.1464 242.619 31.203 232.633 28.8608C222.646 26.5186 212.64 32.6645 210.283 42.5882C207.926 52.5119 214.111 62.4554 224.097 64.7976C234.084 67.1398 244.09 60.9938 246.447 51.0701Z"
          fill="#407BFF"/>
    <path opacity="0.3"
          d="M246.447 51.0701C248.804 41.1464 242.619 31.203 232.633 28.8608C222.646 26.5186 212.64 32.6645 210.283 42.5882C207.926 52.5119 214.111 62.4554 224.097 64.7976C234.084 67.1398 244.09 60.9938 246.447 51.0701Z"
          fill="white"/>
    <path opacity="0.2"
          d="M228.376 61.0274C236.263 61.0274 242.658 54.6732 242.658 46.835C242.658 38.9967 236.263 32.6426 228.376 32.6426C220.488 32.6426 214.094 38.9967 214.094 46.835C214.094 54.6732 220.488 61.0274 228.376 61.0274Z"
          fill="white"/>
    <path opacity="0.1"
          d="M216.265 46.835C216.267 43.2595 217.627 39.8165 220.074 37.1952C222.521 34.5739 225.874 32.9676 229.461 32.6979C229.1 32.6979 228.747 32.6426 228.376 32.6426C224.588 32.6426 220.955 34.1378 218.277 36.7994C215.598 39.461 214.094 43.0709 214.094 46.835C214.094 50.599 215.598 54.2089 218.277 56.8705C220.955 59.5321 224.588 61.0274 228.376 61.0274C228.747 61.0274 229.1 61.0274 229.461 60.972C225.874 60.7024 222.521 59.0961 220.074 56.4748C217.627 53.8534 216.267 50.4104 216.265 46.835Z"
          fill="black"/>
    <g opacity="0.1">
        <path d="M235.095 51.9607C234.067 52.8726 232.759 53.4121 231.383 53.4915V55.8616H229.258V53.5561C228.24 53.505 227.232 53.3221 226.261 53.012C225.438 52.7616 224.663 52.375 223.969 51.8685L225.138 49.2956C225.707 49.7116 226.332 50.0468 226.994 50.2916C227.71 50.5592 228.459 50.7268 229.221 50.7895V47.2668C228.349 47.0734 227.495 46.805 226.669 46.4645C225.991 46.1848 225.395 45.7409 224.934 45.1735C224.437 44.5237 224.187 43.7201 224.229 42.9049C224.222 42.3422 224.333 41.7842 224.555 41.2666C224.777 40.749 225.105 40.2831 225.519 39.8986C226.545 38.9848 227.854 38.445 229.231 38.3677V36.0254H231.356V38.3216C232.898 38.4041 234.396 38.8634 235.717 39.6588L234.659 42.2501C233.662 41.6716 232.557 41.2984 231.411 41.1527V44.74C232.269 44.9304 233.11 45.1895 233.926 45.5147C234.599 45.7935 235.192 46.2339 235.652 46.7965C236.144 47.4421 236.393 48.2379 236.358 49.0466C236.36 49.5924 236.249 50.1329 236.032 50.6342C235.815 51.1356 235.496 51.5871 235.095 51.9607ZM228.135 43.5965C228.483 43.8632 228.88 44.0577 229.305 44.1683V41.1712C228.859 41.2528 228.446 41.461 228.117 41.7706C227.878 42.0193 227.742 42.3487 227.736 42.6928C227.724 42.8643 227.754 43.0361 227.824 43.1936C227.893 43.351 228 43.4893 228.135 43.5965ZM232.571 50.1625C232.696 50.0438 232.795 49.9004 232.86 49.7415C232.926 49.5827 232.957 49.4119 232.952 49.2403C232.956 49.0774 232.923 48.9156 232.856 48.767C232.788 48.6185 232.688 48.4871 232.562 48.3826C232.227 48.1143 231.842 47.9138 231.43 47.7924V50.725C231.857 50.6499 232.253 50.4547 232.571 50.1625Z"
              fill="black"/>
    </g>
    <path d="M233.65 51.9607C232.62 52.8695 231.313 53.4086 229.938 53.4915V55.8616H227.813V53.5561C226.794 53.5042 225.787 53.3213 224.816 53.012C223.992 52.7616 223.217 52.375 222.523 51.8685L223.693 49.2956C224.262 49.7116 224.887 50.0468 225.549 50.2916C226.265 50.5573 227.014 50.7248 227.776 50.7895V47.2668C226.903 47.0734 226.05 46.805 225.224 46.4645C224.547 46.1824 223.951 45.739 223.489 45.1735C222.995 44.5219 222.746 43.7196 222.783 42.9049C222.778 42.3424 222.89 41.785 223.112 41.2676C223.334 40.7502 223.661 40.2841 224.073 39.8986C225.1 38.9848 226.409 38.445 227.785 38.3677V36.0254H229.91V38.3216C231.43 38.3991 232.907 38.8421 234.216 39.6127L233.158 42.204C232.161 41.6255 231.056 41.2523 229.91 41.1066V44.6939C230.769 44.883 231.61 45.1421 232.425 45.4686C233.098 45.7473 233.692 46.1878 234.151 46.7504C234.647 47.3938 234.897 48.1911 234.857 49.0005C234.871 49.5499 234.772 50.0963 234.564 50.6057C234.357 51.1151 234.045 51.5764 233.65 51.9607ZM226.681 43.5965C227.028 43.8632 227.426 44.0577 227.85 44.1683V41.1712C227.404 41.2528 226.992 41.461 226.662 41.7706C226.423 42.0193 226.287 42.3487 226.282 42.6928C226.27 42.8643 226.3 43.0361 226.369 43.1936C226.439 43.351 226.546 43.4893 226.681 43.5965ZM231.117 50.1625C231.243 50.0442 231.343 49.9011 231.41 49.7423C231.477 49.5835 231.51 49.4125 231.506 49.2403C231.509 49.0767 231.475 48.9147 231.406 48.7662C231.336 48.6177 231.235 48.4866 231.107 48.3826C230.772 48.1143 230.388 47.9138 229.975 47.7924V50.725C230.402 50.6499 230.798 50.4547 231.117 50.1625Z"
          fill="#407BFF"/>
    <path d="M274.392 180.917H252.528C252.276 180.91 252.026 180.955 251.793 181.048C251.559 181.14 251.347 181.279 251.169 181.456C250.991 181.633 250.851 181.844 250.757 182.076C250.664 182.308 250.619 182.557 250.626 182.807V204.524C250.624 204.774 250.673 205.02 250.768 205.251C250.863 205.481 251.003 205.691 251.18 205.867C251.356 206.044 251.566 206.184 251.798 206.279C252.029 206.375 252.277 206.424 252.528 206.424V210.113C252.532 210.371 252.612 210.622 252.758 210.835C252.904 211.048 253.11 211.214 253.35 211.312C253.59 211.41 253.854 211.436 254.108 211.387C254.363 211.338 254.598 211.215 254.783 211.035L259.423 206.424H274.392C274.642 206.424 274.89 206.375 275.122 206.279C275.353 206.184 275.563 206.044 275.74 205.867C275.917 205.691 276.057 205.481 276.152 205.251C276.247 205.02 276.295 204.774 276.294 204.524V182.807C276.3 182.557 276.256 182.308 276.162 182.076C276.069 181.844 275.929 181.633 275.751 181.456C275.573 181.279 275.361 181.14 275.127 181.048C274.893 180.955 274.643 180.91 274.392 180.917Z"
          fill="#407BFF"/>
    <g opacity="0.9">
        <path d="M269.568 191.536H257.921L257.485 189.932H253.578V190.651H256.928L259.35 199.541H267.368V198.821H259.944L259.517 197.263H267.665L269.568 191.536ZM259.285 196.544L258.116 192.256H268.556L267.108 196.544H259.285Z"
              fill="white"/>
        <path d="M259.755 201.23C260.155 201.23 260.479 200.908 260.479 200.51C260.479 200.113 260.155 199.791 259.755 199.791C259.355 199.791 259.031 200.113 259.031 200.51C259.031 200.908 259.355 201.23 259.755 201.23Z"
              fill="white"/>
        <path d="M268.088 200.51C268.088 200.653 268.046 200.792 267.966 200.91C267.887 201.028 267.774 201.12 267.641 201.175C267.509 201.229 267.364 201.244 267.223 201.216C267.083 201.188 266.954 201.12 266.853 201.019C266.751 200.918 266.682 200.79 266.655 200.651C266.627 200.511 266.641 200.366 266.696 200.235C266.751 200.104 266.843 199.991 266.962 199.912C267.081 199.833 267.221 199.791 267.364 199.791C267.556 199.791 267.741 199.867 267.876 200.002C268.012 200.137 268.088 200.32 268.088 200.51Z"
              fill="white"/>
    </g>
    <path d="M267.197 193.444C269.549 193.444 271.457 191.549 271.457 189.211C271.457 186.874 269.549 184.979 267.197 184.979C264.845 184.979 262.938 186.874 262.938 189.211C262.938 191.549 264.845 193.444 267.197 193.444Z"
          fill="#407BFF"/>
    <path opacity="0.3"
          d="M267.197 193.444C269.549 193.444 271.457 191.549 271.457 189.211C271.457 186.874 269.549 184.979 267.197 184.979C264.845 184.979 262.938 186.874 262.938 189.211C262.938 191.549 264.845 193.444 267.197 193.444Z"
          fill="black"/>
    <g opacity="0.9">
        <path d="M267.07 191.925L263.571 188.32C263.305 188.054 263.156 187.694 263.156 187.319C263.156 186.944 263.305 186.585 263.571 186.318C263.703 186.187 263.86 186.082 264.033 186.011C264.206 185.939 264.391 185.902 264.578 185.902C264.765 185.902 264.95 185.939 265.123 186.011C265.296 186.082 265.453 186.187 265.585 186.318L267.116 187.895L271.756 183.238C271.888 183.107 272.045 183.002 272.218 182.93C272.391 182.859 272.576 182.822 272.763 182.822C272.95 182.822 273.135 182.859 273.308 182.93C273.481 183.002 273.638 183.107 273.77 183.238C274.035 183.503 274.184 183.861 274.184 184.234C274.184 184.608 274.035 184.966 273.77 185.23L267.07 191.925Z"
              fill="white"/>
    </g>
    <path d="M167.542 96.4941H85.5625V162.698H167.542V96.4941Z" fill="#407BFF"/>
    <path opacity="0.5" d="M167.542 96.4941H85.5625V162.698H167.542V96.4941Z" fill="white"/>
    <path d="M95.2531 89.1035H82.7344V97.9196H95.2531V89.1035Z" fill="#407BFF"/>
    <path d="M120.136 89.1035H107.617V97.9196H120.136V89.1035Z" fill="#407BFF"/>
    <path d="M145.034 89.1035H132.516V97.9196H145.034V89.1035Z" fill="#407BFF"/>
    <path d="M169.941 89.1035H157.422V97.9196H169.941V89.1035Z" fill="#407BFF"/>
    <g opacity="0.2">
        <path d="M95.2531 89.1035H82.7344V97.9196H95.2531V89.1035Z" fill="white"/>
        <path d="M120.144 89.1035H107.625V97.9196H120.144V89.1035Z" fill="white"/>
        <path d="M145.042 89.1035H132.523V97.9196H145.042V89.1035Z" fill="white"/>
        <path d="M169.941 89.1035H157.422V97.9196H169.941V89.1035Z" fill="white"/>
    </g>
    <path d="M95.6326 104.018C95.6326 106.167 92.7465 107.91 89.1366 107.91C85.5267 107.91 82.6406 106.167 82.6406 104.018V97.8301H95.1593L95.6326 104.018Z"
          fill="#407BFF"/>
    <path d="M120.547 104.018C120.547 106.167 117.661 107.91 114.051 107.91C110.441 107.91 107.602 106.167 107.602 104.018V97.8301H120.13L120.547 104.018Z"
          fill="#407BFF"/>
    <path d="M145.462 104.018C145.462 106.167 142.576 107.91 139.012 107.91C135.449 107.91 132.562 106.167 132.562 104.018V97.8301H145.091L145.462 104.018Z"
          fill="#407BFF"/>
    <path d="M169.949 104.018C169.949 106.167 167.435 107.91 163.871 107.91C160.307 107.91 157.375 106.167 157.375 104.018V97.8301H169.903L169.949 104.018Z"
          fill="#407BFF"/>
    <path d="M107.706 97.8274V89.1035H95.1875V97.9104V104.015C95.1875 106.164 98.0736 107.907 101.683 107.907C105.293 107.907 107.762 106.164 107.762 104.015V97.8274H107.706Z"
          fill="#263238"/>
    <path opacity="0.8"
          d="M107.706 89.1035H95.1875V104.015C95.1875 106.164 98.0736 107.907 101.683 107.907C105.293 107.907 107.762 106.164 107.762 104.015L107.706 89.1035Z"
          fill="white"/>
    <path d="M132.695 97.8274V89.1035H120.148V97.9104V104.015C120.148 106.164 123.035 107.907 126.598 107.907C130.162 107.907 132.676 106.164 132.676 104.015V97.8274H132.695Z"
          fill="#263238"/>
    <path opacity="0.8"
          d="M132.695 89.1035H120.148V104.015C120.148 106.164 123.035 107.907 126.598 107.907C130.162 107.907 132.676 106.164 132.676 104.015L132.695 89.1035Z"
          fill="white"/>
    <path d="M157.566 97.8274V89.1035H145.047V97.9104V104.015C145.047 106.164 147.933 107.907 151.543 107.907C155.153 107.907 157.621 106.164 157.621 104.015V97.8274H157.566Z"
          fill="#263238"/>
    <path opacity="0.8"
          d="M157.566 89.1035H145.047V104.015C145.047 106.164 147.933 107.907 151.543 107.907C155.153 107.907 157.621 106.164 157.621 104.015L157.566 89.1035Z"
          fill="white"/>
    <path opacity="0.5" d="M158.686 117.205H121.297V138.286H158.686V117.205Z" fill="white"/>
    <path opacity="0.4" d="M145.242 138.267H138.477L143.553 117.416H150.327L145.242 138.267Z" fill="white"/>
    <path opacity="0.4" d="M148.519 138.267H147.016L152.101 117.416H153.595L148.519 138.267Z" fill="white"/>
    <path opacity="0.4" d="M127.667 138.267H126.906L131.992 117.416H132.753L127.667 138.267Z" fill="white"/>
    <path d="M159.421 139.019H120.547V116.463H159.421V139.019ZM122.032 137.544H157.936V117.938H122.032V137.544Z"
          fill="#407BFF"/>
    <path d="M112.179 109.486H89.7031V162.503H112.179V109.486Z" fill="#407BFF"/>
    <path opacity="0.7" d="M111.221 110.463H90.6562V162.511H111.221V110.463Z" fill="white"/>
    <path opacity="0.1" d="M100.452 117.338H92.2109V136.399H100.452V117.338Z" fill="black"/>
    <path opacity="0.1" d="M109.772 117.338H101.531V136.399H109.772V117.338Z" fill="black"/>
    <path opacity="0.1" d="M109.769 142.158H92.2109V161.22H109.769V142.158Z" fill="black"/>
    <path opacity="0.1"
          d="M109.778 116.354H92.2109C92.2109 115.16 92.6881 114.016 93.5373 113.172C94.3866 112.328 95.5385 111.854 96.7396 111.854H105.249C106.45 111.854 107.602 112.328 108.452 113.172C109.301 114.016 109.778 115.16 109.778 116.354Z"
          fill="black"/>
    <path d="M93.7143 137.244H92.2109V141.127H93.7143V137.244Z" fill="#407BFF"/>
    <path opacity="0.3" d="M93.7143 137.244H92.2109V141.127H93.7143V137.244Z" fill="white"/>
    <path d="M93.7109 141.127H94.0078V137.245H93.7109V141.127Z" fill="#407BFF"/>
    <path d="M93.223 138.777C93.223 138.902 93.186 139.023 93.1167 139.126C93.0473 139.229 92.9488 139.309 92.8335 139.357C92.7182 139.404 92.5913 139.417 92.4689 139.393C92.3465 139.368 92.234 139.309 92.1458 139.221C92.0575 139.133 91.9974 139.021 91.9731 138.9C91.9487 138.778 91.9612 138.652 92.009 138.538C92.0567 138.423 92.1376 138.325 92.2414 138.256C92.3452 138.187 92.4672 138.15 92.592 138.15C92.7593 138.15 92.9198 138.216 93.0382 138.334C93.1565 138.452 93.223 138.611 93.223 138.777Z"
          fill="#263238"/>
    <path opacity="0.5" d="M93.106 139.846H92.7812V140.63H93.106V139.846Z" fill="white"/>
    <path d="M92.03 139.653C92.5169 139.653 92.9116 139.26 92.9116 138.776C92.9116 138.293 92.5169 137.9 92.03 137.9C91.5431 137.9 91.1484 138.293 91.1484 138.776C91.1484 139.26 91.5431 139.653 92.03 139.653Z"
          fill="#263238"/>
    <path opacity="0.2"
          d="M92.03 139.653C92.5169 139.653 92.9116 139.26 92.9116 138.776C92.9116 138.293 92.5169 137.9 92.03 137.9C91.5431 137.9 91.1484 138.293 91.1484 138.776C91.1484 139.26 91.5431 139.653 92.03 139.653Z"
          fill="white"/>
    <path d="M328.533 178.814H295.469L301.788 187.059H334.844L328.533 178.814Z" fill="#407BFF"/>
    <path opacity="0.3" d="M328.533 178.814H295.469L301.788 187.059H334.844L328.533 178.814Z" fill="white"/>
    <path d="M340.829 178.814H361.134L355.158 187.059H334.844L340.829 178.814Z" fill="#407BFF"/>
    <path opacity="0.1" d="M340.829 178.814H361.134L355.158 187.059H334.844L340.829 178.814Z" fill="white"/>
    <path d="M334.854 187.049H301.789V219.906H334.854V187.049Z" fill="#407BFF"/>
    <path opacity="0.5" d="M334.854 187.049H301.789V219.906H334.854V187.049Z" fill="white"/>
    <path opacity="0.2" d="M321.298 187.049H315.312V194.445H321.298V187.049Z" fill="black"/>
    <path opacity="0.2" d="M321.298 213.986H315.312V219.925H321.298V213.986Z" fill="black"/>
    <path d="M355.148 187.049H334.844V219.906H355.148V187.049Z" fill="#407BFF"/>
    <path opacity="0.3" d="M355.148 187.049H334.844V219.906H355.148V187.049Z" fill="white"/>
    <path opacity="0.8" d="M346.32 217.755V211.807H337.198V217.755H346.32Z" fill="white"/>
    <path d="M254.575 309.48C262.222 309.867 266.045 310.107 273.682 310.706C272.445 283.373 270.846 256.064 268.885 228.78C268.625 225.312 265.247 222.324 261.349 222.094L253.925 221.725C224.981 220.655 196.166 220.969 167.25 222.647C173.715 251.469 179.738 280.364 185.318 309.332C208.472 308.466 231.449 308.493 254.575 309.48Z"
          fill="#407BFF"/>
    <path opacity="0.5"
          d="M254.575 309.48C262.222 309.867 266.045 310.107 273.682 310.706C272.445 283.373 270.846 256.064 268.885 228.78C268.625 225.312 265.247 222.324 261.349 222.094L253.925 221.725C224.981 220.655 196.166 220.969 167.25 222.647C173.715 251.469 179.738 280.364 185.318 309.332C208.472 308.466 231.449 308.493 254.575 309.48Z"
          fill="white"/>
    <path d="M193.867 309.034C186.22 309.311 182.397 309.504 174.75 309.956C169.591 283.078 164.103 256.27 158.288 229.533C157.536 226.139 160.088 223.133 163.995 222.856C166.946 222.653 168.431 222.552 171.419 222.377C175.326 222.137 179.028 224.747 179.678 228.159C184.739 255.074 189.468 282.033 193.867 309.034Z"
          fill="#407BFF"/>
    <path d="M204.53 324.188L200.911 283.04C200.83 282.149 200.445 281.313 199.821 280.669C199.197 280.025 198.37 279.612 197.478 279.499L195.984 279.305C194.779 279.16 193.661 278.608 192.816 277.742C191.971 276.876 191.452 275.748 191.344 274.546L190.685 267.049C190.62 266.321 190.709 265.588 190.945 264.896C191.181 264.205 191.56 263.569 192.056 263.031C192.553 262.492 193.157 262.062 193.83 261.768C194.503 261.474 195.23 261.322 195.965 261.322H162.557C161.823 261.323 161.097 261.476 160.425 261.771C159.753 262.065 159.15 262.496 158.654 263.034C158.159 263.573 157.781 264.207 157.546 264.899C157.31 265.59 157.222 266.322 157.286 267.049L157.945 274.546C158.053 275.748 158.573 276.876 159.417 277.742C160.262 278.608 161.38 279.16 162.585 279.305L164.079 279.499C164.971 279.612 165.798 280.025 166.422 280.669C167.047 281.313 167.431 282.149 167.513 283.04L171.132 324.188C171.259 325.633 171.928 326.979 173.005 327.959C174.082 328.939 175.49 329.482 176.95 329.481H210.358C208.897 329.482 207.488 328.939 206.409 327.959C205.331 326.98 204.66 325.634 204.53 324.188Z"
          fill="#407BFF"/>
    <g opacity="0.2">
        <path d="M204.53 324.172L200.911 283.024C200.83 282.134 200.445 281.297 199.821 280.654C199.197 280.01 198.37 279.597 197.478 279.483L195.984 279.289C194.779 279.144 193.661 278.592 192.816 277.726C191.971 276.86 191.452 275.732 191.344 274.531L190.685 267.033C190.62 266.306 190.709 265.573 190.945 264.881C191.181 264.189 191.56 263.554 192.056 263.015C192.553 262.476 193.157 262.046 193.83 261.752C194.503 261.458 195.23 261.306 195.965 261.307H162.557C161.823 261.308 161.097 261.46 160.425 261.755C159.753 262.05 159.15 262.48 158.654 263.018C158.159 263.557 157.781 264.192 157.546 264.883C157.31 265.574 157.222 266.306 157.286 267.033L157.945 274.531C158.053 275.732 158.573 276.86 159.417 277.726C160.262 278.592 161.38 279.144 162.585 279.289L164.079 279.483C164.971 279.597 165.798 280.01 166.422 280.654C167.047 281.297 167.431 282.134 167.513 283.024L171.132 324.172C171.259 325.618 171.928 326.963 173.005 327.943C174.082 328.923 175.49 329.466 176.95 329.465H210.358C208.897 329.466 207.488 328.924 206.409 327.944C205.331 326.964 204.66 325.618 204.53 324.172Z"
              fill="white"/>
    </g>
    <path d="M296.482 272.748C296.756 269.629 298.196 266.726 300.519 264.61C302.842 262.495 305.878 261.322 309.028 261.322H279.936C276.786 261.324 273.751 262.498 271.428 264.613C269.106 266.728 267.665 269.63 267.389 272.748L264.484 305.357H293.568L296.482 272.748Z"
          fill="#407BFF"/>
    <path opacity="0.2"
          d="M296.482 272.748C296.756 269.629 298.196 266.726 300.519 264.61C302.842 262.495 305.878 261.322 309.028 261.322H279.936C276.786 261.324 273.751 262.498 271.428 264.613C269.106 266.728 267.665 269.63 267.389 272.748L264.484 305.357H293.568L296.482 272.748Z"
          fill="white"/>
    <path d="M290 303.841C269.87 306.176 249.565 306.651 229.346 305.261C228.651 305.228 227.97 305.059 227.341 304.762C226.713 304.465 226.15 304.047 225.686 303.532C225.221 303.017 224.864 302.416 224.635 301.763C224.407 301.11 224.311 300.418 224.354 299.728C224.938 294.444 225.226 291.807 225.811 286.522C225.967 285.2 226.636 283.99 227.676 283.15C228.715 282.31 230.044 281.905 231.379 282.022C249.836 283.698 268.426 283.252 286.78 280.694C288.113 280.505 289.467 280.84 290.554 281.63C291.641 282.419 292.375 283.599 292.599 284.918L294.687 298.041C294.769 298.728 294.713 299.425 294.521 300.091C294.329 300.757 294.005 301.378 293.569 301.918C293.132 302.458 292.592 302.907 291.979 303.237C291.367 303.567 290.694 303.772 290 303.841Z"
          fill="#407BFF"/>
    <path d="M231.003 282.027C226.363 281.612 224.108 281.354 219.533 280.727C218.199 280.535 216.842 280.869 215.753 281.659C214.664 282.448 213.929 283.629 213.705 284.95L211.58 298.073C211.502 298.761 211.562 299.457 211.758 300.121C211.953 300.786 212.28 301.405 212.719 301.942C213.158 302.48 213.7 302.925 214.314 303.252C214.928 303.578 215.601 303.78 216.294 303.846C221.315 304.528 223.82 304.814 228.859 305.266C229.741 295.97 230.14 291.323 231.003 282.027Z"
          fill="#407BFF"/>
    <g opacity="0.4">
        <path d="M289.985 303.833C269.854 306.168 249.549 306.644 229.331 305.253C228.636 305.221 227.954 305.051 227.326 304.754C226.697 304.457 226.134 304.039 225.67 303.524C225.205 303.01 224.849 302.408 224.62 301.755C224.391 301.102 224.295 300.41 224.338 299.72C224.923 294.436 225.21 291.799 225.795 286.515C225.952 285.192 226.621 283.982 227.66 283.142C228.7 282.302 230.028 281.897 231.363 282.014C249.82 283.69 268.41 283.244 286.765 280.686C288.097 280.497 289.452 280.833 290.539 281.622C291.626 282.411 292.359 283.591 292.583 284.91L294.671 298.033C294.753 298.721 294.697 299.418 294.505 300.084C294.313 300.749 293.99 301.37 293.553 301.911C293.117 302.451 292.576 302.899 291.964 303.229C291.351 303.559 290.678 303.765 289.985 303.833Z"
              fill="white"/>
    </g>
    <path d="M321.933 261.322H309.025C305.876 261.324 302.842 262.499 300.521 264.614C298.201 266.729 296.761 269.631 296.488 272.748L293.611 305.357H224.326L221.459 272.748C221.185 269.631 219.746 266.729 217.425 264.614C215.104 262.499 212.07 261.324 208.922 261.322H196.004C195.269 261.322 194.542 261.474 193.869 261.768C193.196 262.062 192.592 262.492 192.095 263.031C191.599 263.569 191.22 264.205 190.984 264.897C190.748 265.588 190.659 266.321 190.723 267.049L191.382 274.547C191.49 275.748 192.01 276.876 192.855 277.742C193.699 278.608 194.818 279.16 196.022 279.305L197.516 279.499C198.409 279.613 199.235 280.025 199.86 280.669C200.484 281.313 200.869 282.149 200.95 283.04L204.569 324.188C204.699 325.633 205.368 326.977 206.445 327.956C207.521 328.936 208.928 329.48 210.388 329.481H307.577C309.039 329.482 310.447 328.939 311.526 327.96C312.605 326.98 313.275 325.634 313.405 324.188L317.024 283.04C317.102 282.148 317.486 281.31 318.111 280.666C318.736 280.021 319.564 279.609 320.458 279.499L321.943 279.305C323.148 279.161 324.267 278.61 325.112 277.744C325.957 276.877 326.476 275.748 326.583 274.547L327.242 267.049C327.308 266.319 327.219 265.583 326.982 264.889C326.745 264.194 326.364 263.557 325.864 263.018C325.364 262.478 324.756 262.049 324.079 261.757C323.402 261.465 322.671 261.317 321.933 261.322Z"
          fill="#407BFF"/>
    <path opacity="0.6"
          d="M321.933 261.322H309.025C305.876 261.324 302.842 262.499 300.521 264.614C298.201 266.729 296.761 269.631 296.488 272.748L293.611 305.357H224.326L221.459 272.748C221.185 269.631 219.746 266.729 217.425 264.614C215.104 262.499 212.07 261.324 208.922 261.322H196.004C195.269 261.322 194.542 261.474 193.869 261.768C193.196 262.062 192.592 262.492 192.095 263.031C191.599 263.569 191.22 264.205 190.984 264.897C190.748 265.588 190.659 266.321 190.723 267.049L191.382 274.547C191.49 275.748 192.01 276.876 192.855 277.742C193.699 278.608 194.818 279.16 196.022 279.305L197.516 279.499C198.409 279.613 199.235 280.025 199.86 280.669C200.484 281.313 200.869 282.149 200.95 283.04L204.569 324.188C204.699 325.633 205.368 326.977 206.445 327.956C207.521 328.936 208.928 329.48 210.388 329.481H307.577C309.039 329.482 310.447 328.939 311.526 327.96C312.605 326.98 313.275 325.634 313.405 324.188L317.024 283.04C317.102 282.148 317.486 281.31 318.111 280.666C318.736 280.021 319.564 279.609 320.458 279.499L321.943 279.305C323.148 279.161 324.267 278.61 325.112 277.744C325.957 276.877 326.476 275.748 326.583 274.547L327.242 267.049C327.308 266.319 327.219 265.583 326.982 264.889C326.745 264.194 326.364 263.557 325.864 263.018C325.364 262.478 324.756 262.049 324.079 261.757C323.402 261.465 322.671 261.317 321.933 261.322Z"
          fill="white"/>
    <path d="M279.883 312.512L282.992 326.852L287.836 325.192L287.27 311.627L279.883 312.512Z" fill="#FFC3BD"/>
    <path d="M234.457 252.321C239.096 252.368 243.719 251.769 248.191 250.541L252.757 260.067C252.757 260.067 281.33 254.977 284.968 263.756C288.077 271.216 288.207 317.243 288.207 317.243L280.254 318.165C280.254 318.165 271.54 284.662 271.577 273.568C271.579 273.372 271.526 273.179 271.424 273.012C271.321 272.845 271.174 272.709 270.997 272.622C270.821 272.534 270.623 272.498 270.427 272.517C270.231 272.536 270.044 272.609 269.888 272.729C265.498 276.122 253.815 283.463 236.127 282.329C233.39 282.153 230.188 281.563 231.005 272.683C231.785 265.838 232.938 259.041 234.457 252.321Z"
          fill="#407BFF"/>
    <path opacity="0.1"
          d="M250.291 277.59C258.132 274.132 269.008 264.68 274.038 261.176C275.206 260.323 276.535 259.711 277.945 259.377C273.583 258.455 267.997 258.455 263.19 258.833L251.785 263.841L233.475 271.956L231.211 278.411C232 281.869 234.19 282.229 236.157 282.358C243.125 282.843 250.119 281.94 256.731 279.702C255.821 279.748 242.727 280.92 250.291 277.59Z"
          fill="black"/>
    <path d="M304.922 286.241L314.722 296.081L318.526 293.102L310.972 281.814L304.922 286.241Z" fill="#FFC3BD"/>
    <path d="M317.825 291.763L313.407 295.11C313.316 295.183 313.252 295.285 313.225 295.398C313.198 295.512 313.21 295.631 313.259 295.737L315.495 300.533C315.59 300.737 315.762 300.896 315.974 300.975C316.186 301.054 316.42 301.048 316.627 300.957C316.683 300.931 316.736 300.9 316.785 300.865C318.595 299.444 320.145 298.098 322.418 296.374C325.109 294.336 324.673 295.175 327.865 292.814C329.796 291.394 328.487 288.978 327.596 289.485C323.541 291.827 321.648 291.514 319.244 291.283C318.727 291.258 318.219 291.43 317.825 291.763Z"
          fill="#263238"/>
    <path opacity="0.1"
          d="M237.422 259.254L242.303 260.416C242.303 260.416 251.435 253.361 247.175 255.694C244.066 257.409 242.535 253.85 241.895 251.83C239.955 252.098 238.257 252.217 236.977 252.273L237.422 259.254Z"
          fill="black"/>
    <path d="M239.517 251.77C227.407 253.761 222.061 251.889 222.061 251.889C222.061 251.889 213.431 282.7 232.464 282.57C240.9 282.515 244.398 279.232 249.883 276.032C262.355 268.756 272.656 257.976 277.482 258.677C284.414 259.673 280.488 267.899 308.764 290.741L314.629 285.614C314.629 285.614 290.195 242.004 277.361 242.096C265 242.179 245.113 257.616 242.496 257.635C239.879 257.653 239.517 251.77 239.517 251.77Z"
          fill="#407BFF"/>
    <path opacity="0.1"
          d="M281.344 260.432C282.939 261.026 284.242 262.208 284.981 263.733C285.457 265.058 285.787 266.431 285.965 267.828C286.763 268.971 287.71 270.253 288.823 271.655C288.081 262.414 281.344 260.432 281.344 260.432Z"
          fill="black"/>
    <path d="M287.768 323.908L282.2 324.24C282.082 324.245 281.97 324.29 281.882 324.367C281.795 324.444 281.736 324.549 281.717 324.664L280.873 329.893C280.853 330.003 280.855 330.117 280.88 330.226C280.905 330.335 280.952 330.439 281.018 330.53C281.083 330.621 281.167 330.698 281.263 330.757C281.359 330.815 281.466 330.854 281.578 330.871C281.636 330.88 281.696 330.88 281.754 330.871C284.056 330.695 286.088 330.456 288.955 330.29C292.333 330.087 291.498 330.539 295.451 330.363C297.855 330.253 298.124 327.523 297.103 327.449C292.463 327.145 291.034 325.826 289.141 324.277C288.741 323.997 288.255 323.866 287.768 323.908Z"
          fill="#263238"/>
    <path d="M238.089 210.871C239.658 210.271 242.256 211.304 244.511 215.306C246.766 219.308 256.362 235.816 253.633 237.937C250.905 240.058 245.68 234.045 243.759 229.729C241.838 225.413 235.342 211.931 238.089 210.871Z"
          fill="#263238"/>
    <path opacity="0.4"
          d="M242.297 218.502L242.631 221.149L242.455 226.875C242.974 228.028 243.429 229.015 243.754 229.743C244.589 231.536 245.659 233.21 246.937 234.723C247.345 226.654 244.283 218.502 244.283 218.502H242.297Z"
          fill="black"/>
    <path d="M221.473 252.474C221.473 252.474 238.242 254.457 248.942 250.962C248.942 250.962 245.685 246.886 245.23 238.725C244.813 230.72 248.237 221.111 240.173 211.373C240.016 211.182 239.815 211.032 239.587 210.936C239.359 210.84 239.111 210.8 238.864 210.819C234.623 211.114 214.875 212.664 214.588 216.14C214.254 220.548 222.884 229.955 221.473 252.474Z"
          fill="#263238"/>
    <path d="M223.109 201.623C223.109 201.623 225.309 207.996 223.601 210.725C223.601 210.725 229.772 211.039 231.276 209.038C231.276 209.038 230.403 208.567 230.125 206.133C229.847 203.698 227.499 201.181 223.109 201.623Z"
          fill="#FFC3BD"/>
    <path opacity="0.2"
          d="M230.148 206.129C229.897 203.879 227.856 201.518 224.06 201.573L223.8 201.804L223.531 202.293C223.531 202.293 225.861 208.508 230.538 207.826C230.337 207.278 230.206 206.708 230.148 206.129Z"
          fill="black"/>
    <path d="M220.793 193.155C221.526 199.011 221.721 201.51 224.885 204.341C229.674 208.611 236.754 206.435 237.803 200.468C238.731 195.101 237.385 186.423 231.446 184.441C230.138 183.998 228.737 183.894 227.377 184.14C226.016 184.386 224.742 184.974 223.675 185.847C222.607 186.72 221.782 187.85 221.278 189.129C220.773 190.408 220.606 191.794 220.793 193.155Z"
          fill="#FFC3BD"/>
    <path d="M233.859 196.611C234.358 197.677 235.002 198.67 235.771 199.562C235.539 199.753 235.267 199.891 234.975 199.965C234.683 200.04 234.378 200.051 234.082 199.996L233.859 196.611Z"
          fill="#ED893E"/>
    <path d="M228.632 193.556L228.52 193.509C228.477 193.465 228.453 193.405 228.453 193.343C228.453 193.282 228.477 193.222 228.52 193.177C228.789 192.827 229.138 192.546 229.538 192.356C229.939 192.167 230.379 192.075 230.822 192.089C230.877 192.104 230.924 192.138 230.957 192.185C230.989 192.231 231.003 192.288 230.998 192.344C230.992 192.4 230.967 192.453 230.926 192.492C230.886 192.532 230.832 192.555 230.775 192.56C230.415 192.557 230.058 192.639 229.736 192.799C229.413 192.959 229.133 193.193 228.919 193.482C228.886 193.523 228.839 193.552 228.788 193.566C228.736 193.579 228.681 193.575 228.632 193.556Z"
          fill="#2E353A"/>
    <path d="M237.39 192.625L237.279 192.579C236.995 192.354 236.66 192.198 236.304 192.126C235.947 192.054 235.579 192.067 235.228 192.164C235.2 192.176 235.169 192.182 235.138 192.182C235.107 192.182 235.076 192.176 235.048 192.164C235.019 192.152 234.993 192.134 234.972 192.112C234.95 192.09 234.933 192.064 234.922 192.035C234.91 192.006 234.905 191.975 234.906 191.944C234.908 191.913 234.916 191.882 234.93 191.854C234.944 191.826 234.964 191.802 234.988 191.782C235.012 191.762 235.04 191.748 235.07 191.74C235.494 191.616 235.942 191.594 236.376 191.675C236.81 191.757 237.218 191.94 237.567 192.21C237.592 192.228 237.613 192.25 237.63 192.275C237.646 192.301 237.657 192.33 237.662 192.36C237.667 192.39 237.667 192.421 237.66 192.45C237.653 192.48 237.64 192.508 237.622 192.533C237.597 192.569 237.562 192.598 237.521 192.616C237.48 192.634 237.435 192.64 237.39 192.634V192.625Z"
          fill="#2E353A"/>
    <path d="M230.385 196.042C230.385 196.522 230.701 196.89 231.016 196.872C231.332 196.854 231.564 196.457 231.527 195.95C231.489 195.443 231.22 195.101 230.905 195.12C230.589 195.138 230.357 195.526 230.385 196.042Z"
          fill="#2E353A"/>
    <path d="M235.832 195.69C235.832 196.17 236.138 196.539 236.454 196.52C236.769 196.502 236.992 196.105 236.964 195.598C236.936 195.091 236.658 194.75 236.342 194.768C236.027 194.787 235.795 195.211 235.832 195.69Z"
          fill="#2E353A"/>
    <path d="M236.211 194.82L237.343 194.424C237.343 194.424 236.805 195.355 236.211 194.82Z" fill="#2E353A"/>
    <path d="M230.758 195.166L231.899 194.76C231.899 194.76 231.352 195.7 230.758 195.166Z" fill="#2E353A"/>
    <path d="M230.974 200.843C230.847 200.696 230.732 200.539 230.631 200.373C230.612 200.351 230.602 200.323 230.602 200.294C230.602 200.266 230.612 200.238 230.631 200.216C230.654 200.199 230.681 200.189 230.71 200.189C230.738 200.189 230.766 200.199 230.789 200.216C231.04 200.634 231.386 200.987 231.801 201.247C232.215 201.507 232.686 201.665 233.174 201.71C233.199 201.717 233.221 201.732 233.237 201.753C233.253 201.774 233.261 201.799 233.261 201.825C233.261 201.851 233.253 201.877 233.237 201.897C233.221 201.918 233.199 201.933 233.174 201.94C232.752 201.91 232.341 201.798 231.964 201.609C231.587 201.421 231.25 201.161 230.974 200.843Z"
          fill="#263238"/>
    <path opacity="0.4"
          d="M223.515 231.483C222.587 227.314 219.404 220.13 219.404 220.13L217.093 219.494L215.961 221.043C217.975 226.023 221.529 233.954 221.622 247.049C226.076 246.911 231.004 240.667 231.004 240.667L228.48 235.134C225.668 236.518 224.415 235.688 223.515 231.483Z"
          fill="black"/>
    <path d="M222.485 197.821C222.485 197.821 226.308 196.087 224.081 192.832C224.081 192.832 227.997 193.367 228.322 189.567C228.322 189.567 231.802 191.31 233.76 188.599C233.76 188.599 237.472 190.692 238.326 188.073C239.179 185.454 236.284 184.763 236.284 184.763C236.284 184.763 236.729 182.18 235.226 181.498C234.726 181.32 234.19 181.268 233.665 181.347C233.14 181.426 232.643 181.633 232.219 181.95C232.219 181.95 231.932 178.87 229.435 178.99C228.657 179.062 227.906 179.311 227.24 179.717C226.574 180.123 226.011 180.675 225.593 181.332C224.906 180.906 224.125 180.651 223.317 180.59C222.509 180.529 221.698 180.664 220.953 180.982C218.476 182.098 218.067 185.454 218.067 185.454C218.067 185.454 215.283 186.017 214.829 188.156C214.374 190.296 215.265 191.024 215.265 191.024C215.265 191.024 213.761 193.081 214.244 194.98C214.726 196.88 215.729 196.825 215.729 196.825C215.547 198.311 215.917 199.813 216.768 201.048C218.151 202.699 219.199 201.971 219.199 201.971C219.199 201.971 219.654 205.659 222.197 205.281C224.74 204.903 222.485 197.821 222.485 197.821Z"
          fill="#263238"/>
    <path d="M219.673 197.903C220.073 198.974 220.884 199.843 221.929 200.32C223.321 200.947 224.239 199.766 224.044 198.346C223.877 197.074 222.94 195.201 221.455 195.174C220.934 195.184 220.438 195.397 220.075 195.769C219.712 196.14 219.511 196.639 219.516 197.157C219.518 197.413 219.572 197.667 219.673 197.903Z"
          fill="#FFC3BD"/>
    <path d="M222.484 212.772L223.988 208.401C225.575 209.001 227.283 209.216 228.971 209.028C230.827 208.816 230.762 207.986 230.762 207.986L234.474 211.177L232.887 213.197L230.038 211.896L227.885 214.276L222.484 212.772Z"
          fill="#263238"/>
    <path opacity="0.7"
          d="M222.484 212.772L223.988 208.401C225.575 209.001 227.283 209.216 228.971 209.028C230.827 208.816 230.762 207.986 230.762 207.986L234.474 211.177L232.887 213.197L230.038 211.896L227.885 214.276L222.484 212.772Z"
          fill="white"/>
    <path d="M243.008 230.025H239.426C239.259 230.031 239.093 229.998 238.942 229.928C238.79 229.859 238.658 229.754 238.554 229.624C238.451 229.494 238.381 229.341 238.348 229.178C238.316 229.015 238.323 228.847 238.368 228.688L240.354 219.355C240.441 218.987 240.647 218.657 240.94 218.415C241.233 218.174 241.598 218.034 241.978 218.018H245.579C245.745 218.013 245.91 218.047 246.06 218.118C246.21 218.188 246.342 218.292 246.444 218.423C246.546 218.553 246.616 218.705 246.648 218.867C246.68 219.029 246.673 219.196 246.627 219.355L244.632 228.706C244.542 229.071 244.335 229.397 244.042 229.635C243.749 229.873 243.386 230.01 243.008 230.025Z"
          fill="#407BFF"/>
    <path opacity="0.3"
          d="M243.008 230.025H239.426C239.259 230.031 239.093 229.998 238.942 229.928C238.79 229.859 238.658 229.754 238.554 229.624C238.451 229.494 238.381 229.341 238.348 229.178C238.316 229.015 238.323 228.847 238.368 228.688L240.354 219.355C240.441 218.987 240.647 218.657 240.94 218.415C241.233 218.174 241.598 218.034 241.978 218.018H245.579C245.745 218.013 245.91 218.047 246.06 218.118C246.21 218.188 246.342 218.292 246.444 218.423C246.546 218.553 246.616 218.705 246.648 218.867C246.68 219.029 246.673 219.196 246.627 219.355L244.632 228.706C244.542 229.071 244.335 229.397 244.042 229.635C243.749 229.873 243.386 230.01 243.008 230.025Z"
          fill="white"/>
    <path d="M243.533 230.025H239.942C239.775 230.031 239.609 229.998 239.457 229.928C239.306 229.859 239.173 229.754 239.07 229.624C238.967 229.494 238.896 229.341 238.864 229.178C238.831 229.015 238.838 228.847 238.884 228.688L240.879 219.355C240.966 218.987 241.171 218.657 241.465 218.415C241.758 218.174 242.123 218.034 242.503 218.018H246.104C246.27 218.013 246.435 218.047 246.585 218.118C246.735 218.188 246.867 218.292 246.969 218.423C247.071 218.553 247.141 218.705 247.173 218.867C247.204 219.029 247.198 219.196 247.152 219.355L245.157 228.706C245.067 229.071 244.86 229.397 244.567 229.635C244.274 229.873 243.911 230.01 243.533 230.025Z"
          fill="#407BFF"/>
    <path opacity="0.7"
          d="M243.533 230.025H239.942C239.775 230.031 239.609 229.998 239.457 229.928C239.306 229.859 239.173 229.754 239.07 229.624C238.967 229.494 238.896 229.341 238.864 229.178C238.831 229.015 238.838 228.847 238.884 228.688L240.879 219.355C240.966 218.987 241.171 218.657 241.465 218.415C241.758 218.174 242.123 218.034 242.503 218.018H246.104C246.27 218.013 246.435 218.047 246.585 218.118C246.735 218.188 246.867 218.292 246.969 218.423C247.071 218.553 247.141 218.705 247.173 218.867C247.204 219.029 247.198 219.196 247.152 219.355L245.157 228.706C245.067 229.071 244.86 229.397 244.567 229.635C244.274 229.873 243.911 230.01 243.533 230.025Z"
          fill="white"/>
    <path d="M242.109 220.784H242.461C242.719 220.769 242.965 220.671 243.161 220.505C243.357 220.338 243.493 220.112 243.547 219.861L243.621 219.511C243.658 219.403 243.667 219.287 243.648 219.175C243.63 219.062 243.584 218.956 243.514 218.865C243.445 218.774 243.354 218.701 243.25 218.653C243.145 218.605 243.031 218.583 242.916 218.589H242.564C242.306 218.603 242.06 218.701 241.864 218.868C241.668 219.034 241.532 219.26 241.478 219.511L241.404 219.861C241.367 219.97 241.358 220.085 241.377 220.198C241.395 220.31 241.441 220.417 241.511 220.508C241.58 220.599 241.671 220.671 241.775 220.719C241.88 220.767 241.994 220.79 242.109 220.784Z"
          fill="#407BFF"/>
    <path d="M242.974 219.191C242.953 219.294 242.897 219.386 242.816 219.454C242.735 219.521 242.634 219.558 242.528 219.56C242.482 219.564 242.435 219.556 242.392 219.537C242.349 219.519 242.311 219.49 242.282 219.454C242.253 219.417 242.233 219.375 242.224 219.329C242.215 219.283 242.218 219.236 242.231 219.191C242.257 219.09 242.315 218.999 242.397 218.932C242.479 218.866 242.581 218.827 242.686 218.823C242.732 218.821 242.778 218.83 242.82 218.849C242.861 218.868 242.898 218.897 242.926 218.933C242.954 218.969 242.973 219.011 242.982 219.056C242.99 219.101 242.987 219.148 242.974 219.191Z"
          fill="#263238"/>
    <path d="M242.746 220.262C242.72 220.363 242.662 220.454 242.58 220.521C242.498 220.587 242.396 220.626 242.291 220.63C242.245 220.632 242.199 220.623 242.157 220.604C242.115 220.584 242.078 220.556 242.049 220.52C242.021 220.484 242.001 220.442 241.991 220.397C241.981 220.352 241.982 220.306 241.994 220.262C242.02 220.16 242.078 220.069 242.16 220.002C242.242 219.936 242.343 219.897 242.449 219.893C242.495 219.891 242.54 219.901 242.582 219.92C242.624 219.939 242.661 219.968 242.69 220.003C242.719 220.039 242.739 220.081 242.748 220.126C242.758 220.171 242.757 220.217 242.746 220.262Z"
          fill="#263238"/>
    <path d="M253.056 233.909L248.017 230.045C248.017 230.045 246.05 225.785 244.686 225.25C244.322 225.143 243.934 225.149 243.574 225.268C243.214 225.386 242.899 225.612 242.672 225.914C241.874 226.891 241.79 229.981 242.598 230.958C243.405 231.936 245.864 232.581 245.864 232.581L250.578 237.46L253.056 233.909Z"
          fill="#FFC3BD"/>
    <path d="M254.28 238.197C251.933 240.392 249.575 237.699 247.172 234.988C247.924 234.63 248.591 234.115 249.126 233.478C249.66 232.842 250.051 232.099 250.271 231.299C250.271 231.299 257.371 235.32 254.28 238.197Z"
          fill="#263238"/>
    <path opacity="0.7"
          d="M247.172 234.978L247.868 235.762C249.417 234.913 250.582 233.508 251.125 231.834C250.624 231.493 250.271 231.299 250.271 231.299C250.05 232.097 249.659 232.838 249.124 233.473C248.589 234.108 247.923 234.621 247.172 234.978Z"
          fill="white"/>
    <path d="M231.281 233.909L236.32 230.045C236.32 230.045 238.288 225.785 239.652 225.25C240.016 225.143 240.404 225.149 240.764 225.268C241.124 225.386 241.438 225.612 241.666 225.914C242.464 226.891 242.547 229.981 241.74 230.958C240.932 231.936 238.473 232.581 238.473 232.581L233.759 237.46L231.281 233.909Z"
          fill="#FFC3BD"/>
    <path d="M213.213 229.203C212.405 226.022 211.505 218.054 214.605 215.518C217.704 212.982 219.486 219.917 220.711 225.256C221.936 230.596 222.567 237.752 225.304 236.645C227.778 235.417 230.141 233.979 232.366 232.348L235.512 236.756C235.512 236.756 225.908 247.758 221.685 244.512C217.463 241.265 214.243 233.233 213.213 229.203Z"
          fill="#263238"/>
    <path opacity="0.7"
          d="M231.203 233.16L234.433 237.909C235.11 237.208 235.518 236.738 235.518 236.738L232.372 232.33C232.372 232.33 231.908 232.671 231.203 233.16Z"
          fill="white"/>
</svg>
