<?xml version="1.0" standalone="no"?>
<!DOCTYPE svg PUBLIC "-//W3C//DTD SVG 20010904//EN"
 "http://www.w3.org/TR/2001/REC-SVG-20010904/DTD/svg10.dtd">
<svg version="1.0" xmlns="http://www.w3.org/2000/svg"
 width="512.000000pt" height="512.000000pt" viewBox="0 0 512.000000 512.000000"
 preserveAspectRatio="xMidYMid meet">

<g transform="translate(0.000000,512.000000) scale(0.100000,-0.100000)"
fill="#00000096" stroke="none">
<path d="M2424 4971 c-180 -51 -317 -209 -344 -396 -6 -42 -10 -408 -10 -922
l0 -853 -392 0 c-360 0 -396 -2 -433 -19 -55 -25 -120 -100 -134 -156 -6 -25
-11 -135 -11 -264 l0 -221 29 -32 29 -33 1402 0 1402 0 29 33 29 32 0 228 c0
259 -7 295 -67 357 -73 75 -70 75 -510 75 l-393 0 0 868 c0 952 0 943 -61
1063 -37 74 -122 162 -195 201 -107 58 -251 73 -370 39z"/>
<path d="M1133 1570 c-22 -13 -35 -31 -42 -57 -6 -21 -60 -279 -121 -573 -86
-414 -111 -548 -108 -592 5 -75 46 -142 112 -183 l49 -30 1537 0 1537 0 49 30
c66 41 107 108 112 183 3 44 -22 178 -108 592 -61 294 -115 552 -121 573 -7
26 -20 44 -42 57 -31 20 -61 20 -1427 20 -1366 0 -1396 0 -1427 -20z"/>
</g>
</svg>
